<?xml version="1.0" standalone="no"?>
<!--Created with Sketsa SVG Editor (http://www.kiyut.com)-->
<svg contentScriptType="text/ecmascript" width="1300.0px" xmlns:xlink="http://www.w3.org/1999/xlink" baseProfile="full"
    zoomAndPan="magnify" contentStyleType="text/css" height="1200.0px" preserveAspectRatio="xMidYMid meet" xmlns="http://www.w3.org/2000/svg"
    version="1.0">
    <g>
        <polygon fill="#F5F5F5" points="861.5802,421.50064 850.70917,427.30865 846.2052,428.33664 843.6062,420.10965 
            841.1732,420.62164 844.3842,431.66464 832.4162,432.85565 833.29517,443.39865 836.99817,442.97665 
            840.24817,477.33264 836.4312,477.65265 836.8172,481.60162 840.4812,481.26562 843.9772,518.5156 
            840.3562,518.9846 840.6972,523.24664 844.2742,523.07465 847.2202,553.76166 843.6542,554.12866 
            844.1542,558.42163 847.7162,558.1177 850.6272,588.32465 853.9772,590.82465 859.1882,594.71063 
            860.9552,592.51166 870.20917,599.5787 887.1772,612.5397 886.92017,613.08264 891.12317,616.3677 
            891.4902,616.0706 898.6582,624.19165 903.5202,624.78564 909.3492,640.7266 912.3302,642.73865 
            918.45917,645.2186 931.73114,639.32465 923.8132,637.61365 919.0912,621.3287 927.7702,614.1956 
            935.55914,622.2576 939.6452,618.5317 948.32623,626.29364 955.47015,622.87866 941.8132,609.53564 
            941.0522,607.67566 951.6412,607.0546 960.83417,616.3677 965.17316,618.84766 965.8132,622.4147 
            972.1922,621.6406 978.1922,619.4686 987.00214,611.2427 986.4902,608.1406 979.0882,599.92163 
            978.45123,598.83563 970.27924,596.81665 963.00214,589.83966 959.5562,587.66864 953.4312,587.51166 
            950.87714,589.3757 947.04816,585.0317 949.4742,582.69965 952.7952,582.2346 956.11017,583.63666 
            961.85614,583.78564 967.60223,583.9456 974.87714,584.41064 977.5562,581.46466 976.40424,577.8906 
            974.7482,575.10565 974.23517,568.89465 972.83417,565.79364 970.27924,561.29663 962.6232,560.21063 
            961.21625,560.9846 955.47015,560.0546 945.3912,562.0706 942.17316,566.5236 941.53314,572.7037 
            942.8132,576.8046 944.4982,580.37866 943.98517,583.78564 943.1622,585.9296 941.4272,584.10565 
            942.3022,582.52765 942.04816,579.3986 939.90814,577.37164 937.34125,577.1326 935.09125,578.4296 
            934.17316,580.05066 934.0412,581.92163 934.9742,584.0007 936.8132,585.28564 938.5562,585.43365 
            940.0202,584.90265 941.4942,586.7266 938.9472,587.92566 935.4382,588.8206 932.3062,586.3596 
            932.23517,585.08563 931.3692,583.44165 930.6452,582.3287 930.4632,579.1876 929.20917,577.16864 
            928.0632,575.16064 927.20514,572.5076 927.1812,568.8826 928.9902,566.19965 931.20123,565.00366 
            935.3132,568.38666 939.1702,567.0626 939.2592,566.73065 940.23114,563.05865 936.75214,561.8677 
            932.4122,562.16064 929.8492,563.55066 926.5722,562.7346 921.98517,562.83563 917.3802,567.3126 
            912.9552,567.54364 906.1342,565.07465 906.1342,564.14465 906.1342,563.5626 906.1342,562.16864 
            912.9552,557.9067 918.6662,550.74664 927.33014,551.86365 939.4982,553.4296 950.1882,550.0706 
            952.83014,549.8287 954.95917,550.3596 958.47723,549.62164 960.6922,547.3826 962.5372,545.14465 
            963.1622,541.2507 961.79816,530.36365 958.11017,513.11365 955.5452,509.86768 955.1192,508.53967 
            941.95917,496.50067 940.23114,495.64764 932.86017,490.27264 931.01324,478.85165 930.09515,476.83664 
            927.7402,463.52365 926.9632,462.95764 925.85614,460.48865 922.35614,458.69565 921.4312,456.01166 
            918.2982,454.44565 916.2702,451.98465 912.3992,448.84766 910.37317,445.26166 906.3172,443.02365 
            898.3912,434.28964 897.8412,431.60565 892.6812,427.13666 888.42017,425.00464 885.6492,422.66064 
            882.1842,420.90265 881.12317,421.11365 878.4552,419.94565 869.4512,418.39465 861.9382,418.28165"/>
        <polygon fill="#F5F5F5" points="18037.104,-8583.902 18037.104,-6342.6914 18037.104,-4101.4805 
            22519.482,-4101.4805 22519.482,-8583.902"/>
    </g>
    <g stroke-width="2" stroke="#646464">
        <path fill="#FEFEE9" d="M 986.4932 608.13666 l 0.511 3.102 l -8.812 8.229 l -6.0 2.17 l -6.38 0.779 l -0.64 
            -3.568 l -4.34 -2.48 l -9.19 -9.311 l -10.59 0.621 l 0.761 1.859 l 13.659 13.34 l -7.149 3.42 l -8.681 -7.77 
            l -4.079 3.729 l -7.791 -8.061 l -8.68 7.131 l 4.721 16.289 l 7.92 1.711 l -13.271 5.891 l -6.13 -2.48 l 
            -2.98 -2.01 l -5.829 -15.939 l -4.87 -0.602 l -7.16 -8.119 l -0.37 0.301 l -4.199 -3.291 l 0.25 -0.539 l 
            -16.96 -12.961 l -9.261 -7.068 l -1.76 2.199 l -4.2 -3.131 l 29.109 -37.549 l 2.33 10.0 c 0.0 0.0 10.67 1.33 
            12.341 1.33 c 1.659 0.0 7.359 -1.211 7.359 -1.211 v 0.93 l 6.819 2.471 l 4.431 -0.229 l 4.601 -4.48 l 4.59 
            -0.1 l 3.279 0.809 l 2.561 -1.389 l 4.341 -0.291 l 3.479 1.189 l -0.729 2.762 l -0.24 0.908 l -0.09 0.342 l 
            -3.859 1.318 l -4.11 -3.379 l -2.21 1.189 l -1.81 2.689 l 0.02 3.619 l 0.86 2.65 l 1.149 2.01 l 1.25 2.021 l 
            0.181 3.139 l 0.729 1.111 l 0.86 1.648 l 0.069 1.271 l 3.141 2.459 l 3.5 -0.891 l 2.55 -1.199 l -1.47 -1.82 
            l -1.47 0.531 l -1.74 -0.15 l -1.84 -1.291 l -0.931 -2.08 l 0.13 -1.869 l 0.92 -1.619 l 2.25 -1.291 l 2.561 
            0.23 l 2.15 2.029 l 0.25 3.131 l -0.881 1.58 l 1.739 1.818 l 0.82 -2.141 l 0.51 -3.41 l -1.68 -3.568 l -1.28 
            -4.102 l 0.641 -6.18 l 3.221 -4.459 l 10.08 -2.012 l 5.739 0.932 l 1.409 -0.781 l 7.66 1.09 l 2.551 4.5 l 
            1.399 3.102 l 0.51 6.211 l 1.66 2.779 l 1.15 3.58 l -2.682 2.939 l -7.27 -0.461 l -5.75 -0.16 l -5.74 -0.148 
            l -3.319 -1.4 l -3.319 0.461 l -2.42 2.33 l 3.818 4.35 l 2.562 -1.869 l 6.12 0.158 l 3.449 2.17 l 7.279 6.98 
            l 8.17 2.02 l 0.631 1.08 L 986.4932 608.13666 z"/>
        <polygon fill="#FEFEE9" points="906.6422,655.3677 900.2232,663.85767 892.9832,672.6777 885.8232,676.80664 
            876.6022,686.94763 874.8432,689.2266 874.1922,690.9086 874.0222,692.9086 874.1822,696.4086 874.9232,699.9667 
            875.99316,703.10767 880.1922,715.16864 880.33417,717.94763 880.0132,719.27765 878.80316,720.44763 
            876.9532,721.54663 872.2632,723.79663 868.9532,725.7167 866.3522,727.8677 863.4322,730.81866 
            855.0932,739.7576 853.9532,740.60767 852.5622,741.28766 850.4632,741.9086 847.1922,742.1777 
            844.9132,742.6486 843.0332,743.38666 826.3922,753.81866 821.4322,725.02765 815.1022,668.02765 
            810.7722,626.35767 824.4322,611.69763 825.1022,599.69763 848.1022,598.69763 854.2032,592.59766 
            858.2632,595.85767 856.7132,597.78766 886.3122,620.91864 891.1632,627.5787 893.4322,632.58563 
            896.11316,641.23865 898.1732,647.63666 899.4132,651.3986"/>
    </g>
    <g stroke-width="2" stroke="#7c7c79">
        <path fill="#FEFEE9" d="M 961.80316 530.3677 l 1.359 10.88 l -0.63 3.9 l -1.84 2.229 l -2.211 2.24 l -3.52 0.74 
            l -2.13 -0.53 l -2.642 0.24 l -10.699 3.359 l -12.159 -1.56 l -8.671 -1.12 l -5.71 7.161 l -6.819 4.26 v 1.4 
            v 0.58 c 0.0 0.0 -5.7 1.209 -7.36 1.209 c -1.67 0.0 -12.34 -1.33 -12.34 -1.33 l -2.33 -10.0 l -29.109 37.551 
            l -1.011 -0.75 l -3.359 -2.5 l -2.909 -30.211 l -3.561 0.301 l -0.5 -4.25 v -0.041 l 3.569 -0.37 l -2.95 
            -30.68 l -3.579 0.17 l -0.341 -4.26 l 3.63 -0.471 l -3.5 -37.25 l -3.67 0.33 l -0.38 -3.949 l 3.811 -0.311 l 
            -3.25 -34.36 l -3.699 0.421 l -0.75 -8.95 l 15.06 -0.92 l -0.75 -2.75 l 16.5 -8.25 l 7.851 -3.83 l 7.25 1.25 
            l 2.67 1.17 l 1.061 -0.21 l 3.47 1.75 l 2.771 2.35 l 4.26 2.13 l 5.16 4.471 l 0.55 2.68 l 7.92 8.74 l 4.061 
            2.229 l 2.03 3.59 l 3.869 3.141 l 2.03 2.46 l 3.13 1.56 l 0.92 2.69 l 3.5 1.79 l 1.11 2.47 l 0.779 0.57 l 
            2.351 13.31 l 0.92 2.01 l 1.851 11.431 l 7.37 5.37 l 1.729 0.85 l 13.159 12.04 l 0.421 1.33 l 2.569 3.25 L 
            961.80316 530.3677 z"/>
        <polygon fill="#FEFEE9" points="854.2032,592.59766 848.1022,598.69763 834.4322,585.69763 830.1022,541.02765 
            826.08417,487.95764 823.4322,453.02765 817.7722,435.35764 831.3122,434.52765 831.9532,443.55765 
            828.4132,443.95764 831.7632,478.00766 835.1822,477.70764 835.61316,481.72766 835.61316,481.73767 
            832.11316,482.07764 833.8832,501.20764 835.49316,519.27765 839.2832,519.07764 839.7032,523.34766 
            839.7232,523.59766 835.8832,523.8776 838.7332,554.48865 842.4532,554.30664 842.9322,558.48865 
            839.12317,558.9667 842.1022,589.8986 849.9422,589.1777 853.2032,591.79663"/>
    </g>
    <g stroke-width="2" stroke="#646464">
        <polygon fill="#FEFEE9" points="845.38916,431.66565 842.17816,420.62265 844.6122,420.11066 847.2102,428.33765 
            851.7132,427.30966 862.5852,421.50165 862.9442,418.28265 870.4562,418.39566 872.2082,418.69766 
            864.3582,422.52866 847.8582,430.77866 848.6082,433.52866 833.5492,434.45364 833.5542,434.46265 
            833.4212,432.85666" transform="matrix(1.0 0.0 0.0 1.0 -2.0 0.0)"/>
        <path fill="#FEFEE9" d="M 866.4082 371.19864 l 0.069 6.74 l -28.449 7.09 l -13.54 3.38 l 0.199 1.6 l 1.54 1.5 l 
            0.66 0.46 l 1.811 0.021 l 1.851 0.64 l 1.569 1.36 l 0.471 1.22 l 9.92 18.55 l -0.061 0.62 l -0.811 0.71 l 
            -0.91 0.36 l -0.64 -0.29 l -5.561 -9.96 l -0.939 0.38 l -4.341 -8.82 l -1.37 0.561 l 4.521 8.77 l -2.72 1.41 
            l -3.801 -7.76 l -1.229 0.56 l 3.961 7.83 l -9.591 5.08 l 5.8 20.229 l 7.381 -0.6 l 0.119 1.69 l -13.539 
            0.829 l -86.67 5.671 l -2.671 -38.0 l -3.0 -8.33 l 21.0 -25.0 c 0.0 0.0 -7.579 -14.92 -9.829 -17.17 s -8.5 
            -10.0 -13.0 -14.0 s -15.75 -10.0 -15.75 -10.0 l 8.75 -14.25 l 29.0 -1.5 l 17.0 12.0 l 19.75 -0.75 l 5.38 
            3.44 l 3.979 -7.71 l 31.85 -2.52 l 13.45 8.95 v 2.47 l -26.729 2.72 v 0.86 l 8.67 6.04 l 31.33 -2.91 l 
            10.689 7.39 v 2.69 l -27.83 3.13 l 4.721 5.55 h 0.01 l 0.801 0.95 l 8.891 -0.95 h 0.01 l 16.54 -1.75 l 0.92 
            11.21 l -19.72 1.34 l 0.729 7.61 L 866.4082 371.19864 z" transform="matrix(1.0 0.0 0.0 1.0 -2.0 0.0)"/>
    </g>
    <path fill="#FEFEE9" d="M 848.1022 598.69763 l -23.0 1.0 l -0.67 12.0 l -13.66 14.66 l -1.34 -17.66 l -19.33 0.33 c 
        0.0 0.0 -1.109 0.871 -2.88 2.24 l -6.45 -12.57 l -1.34 -13.67 l -1.109 -32.68 l -0.221 -6.649 l 52.0 -4.67 l 
        4.33 44.669 L 848.1022 598.69763 z"/>
    <polygon fill="#FEFEE9" points="826.08417,487.95764 830.1022,541.02765 778.1022,545.69763 778.3232,552.34766 
        778.1022,552.35767 706.9832,556.9277 705.87317,501.96765 808.7722,493.02765 815.1022,486.02765 
        818.7722,485.69763 821.7722,488.35767"/>
    <path fill="#FEFEE9" d="M 821.4322 725.02765 l 4.96 28.791 l -5.55 3.479 l -1.931 1.852 l -1.279 2.619 l -0.261 
        4.311 l -0.18 4.43 l -0.341 1.75 l -0.84 1.369 l -5.67 4.08 l -6.101 4.041 l -3.949 4.529 l -6.24 7.109 l -1.351 
        0.602 l -1.609 0.398 l -2.66 0.141 l -8.87 -0.84 l -10.51 2.75 l -2.83 0.439 l -1.859 0.271 l -7.851 0.359 l 
        -9.53 -0.08 l -2.93 0.299 l -3.0 0.689 l -3.38 1.25 l -3.471 3.15 l -4.3 5.371 l -2.271 3.289 l -2.561 2.67 l 
        -1.08 0.619 l -1.841 0.631 l -3.58 0.859 l -2.17 0.26 l -2.438 0.891 l -2.591 1.621 l -4.521 5.229 l -5.49 2.061 
        l -8.829 -0.4 l -5.75 -1.84 l -5.311 0.131 l -2.57 0.061 l -1.909 -0.5 l -1.591 -1.041 l -0.688 -1.369 l -0.341 
        -1.25 l -0.011 -1.74 l 0.5 -1.641 l 1.011 -0.988 l 5.659 -2.682 l 1.682 -1.27 l 0.83 -1.9 l 0.14 -1.01 l -0.311 
        -1.1 l -1.539 -1.762 l -2.08 -1.939 l -2.602 -1.318 l -2.09 -1.051 l -2.27 -0.541 l -1.71 0.061 l -1.16 0.352 l 
        -1.36 1.061 l -0.609 1.789 l 0.279 2.521 l 0.65 3.879 l 0.3 2.041 l -0.3 1.979 l -0.681 1.561 l -1.359 0.891 l 
        -2.221 -0.061 l -1.75 -0.859 l -2.21 -1.891 l -0.739 -0.57 l -17.99 -65.219 l 9.67 -16.0 l 11.0 -1.342 l 0.67 
        -6.0 l 45.0 -22.0 l -0.67 -8.0 l 7.67 -4.328 l -2.34 -37.0 c 0.0 0.0 28.34 -8.672 32.34 -11.0 c 2.44 -1.422 8.47 
        -5.701 12.96 -9.041 l -0.3 12.041 l 6.67 -1.672 l 7.67 -11.658 l -0.25 -9.9 c 5.062 -4.01 11.181 -8.789 14.7 
        -11.529 c 1.77 -1.371 2.88 -2.24 2.88 -2.24 l 19.33 -0.33 l 1.34 17.66 l 4.33 41.67 L 821.4322 725.02765 z"/>
    <path fill="#FEFEE9" d="M 823.4322 453.02765 l 2.65 34.93 l -4.312 0.4 l -3.0 -2.66 l -3.67 0.33 l -6.33 7.0 l 
        -102.899 8.939 l -2.22 -39.529 l -2.171 -19.631 v -0.01 c 14.65 -0.859 29.62 -1.77 29.62 -1.77 l 86.67 -5.67 L 
        823.4322 453.02765 z"/>
    <path fill="#FEFEE9" d="M 807.9232 307.15765 l 0.18 2.47 l -26.909 2.97 l -0.03 0.87 l 8.551 6.29 l -3.979 7.71 l 
        -5.381 -3.44 l -19.75 0.75 l -17.0 -12.0 l -29.0 1.5 l -8.75 14.25 c 0.0 0.0 11.25 6.0 15.75 10.0 s 10.75 11.75 
        13.0 14.0 s 9.83 17.17 9.83 17.17 l -21.0 25.0 l 3.0 8.33 l 2.67 38.0 c 0.0 0.0 -14.97 0.909 -29.619 1.77 c 
        -13.431 0.8 -26.591 1.561 -27.71 1.561 c -2.341 0.0 -18.0 -2.33 -18.0 -2.33 l -12.671 -8.67 l -36.329 -0.33 l 
        -20.051 -0.82 v -0.01 l 6.051 -19.5 l 26.329 -40.0 l 16.671 -27.67 l 21.0 -1.33 l 7.0 7.33 l 19.329 -36.67 c 0.0 
        0.0 -9.329 -8.66 -14.329 -11.33 s -10.341 -6.67 -11.0 -8.33 c -0.671 -1.67 -4.341 -7.0 -4.341 -7.0 l 14.67 
        -16.67 l 2.33 -8.33 l 25.0 17.33 l 3.67 -1.84 l 0.7 1.38 l 9.24 6.55 l 28.02 19.53 l 9.881 -0.87 l 3.25 -4.55 l 
        -42.521 -29.3 l 2.14 -3.68 l 1.631 -1.14 l 0.33 -2.31 l 43.579 -3.87 l 2.221 1.57 l 2.029 10.75 l 12.62 9.06 l 
        0.229 2.91 l -26.819 2.65 l 0.42 0.76 l 8.2 6.1 l 32.069 -2.23 L 807.9232 307.15765 z" stroke-width="2" stroke="#646464"/>
    <path fill="#FEFEE9" d="M 780.7722 598.69763 l 6.45 12.57 c -3.521 2.74 -9.64 7.52 -14.7 11.529 l 0.25 9.9 l -7.67 
        11.66 l -6.67 1.67 l 0.301 -12.041 c -4.49 3.34 -10.521 7.621 -12.961 9.041 c -4.0 2.33 -32.34 11.0 -32.34 11.0 
        l -4.0 -42.67 l -2.45 -54.352 v -0.08 l 71.12 -4.569 l 0.221 -0.011 l 1.109 32.681 L 780.7722 598.69763 z"/>
    <polygon fill="#FEFEE9" points="713.4322,654.02765 715.7722,691.02765 708.1022,695.35767 708.7722,703.35767 
        663.7722,725.35767 663.1022,731.35767 652.1022,732.69763 606.4322,742.8677 599.1022,711.02765 609.1022,678.35767 
        613.7722,661.69763 608.7722,647.69763 607.4322,630.35767 625.7722,624.69763 681.1022,617.35767 
        709.4322,611.35767"/>
    <polygon fill="#FEFEE9" points="706.9832,557.0076 709.4322,611.35767 681.1022,617.35767 625.7722,624.69763 
        607.4322,630.35767 603.4322,570.69763 648.4322,560.69763 706.9832,556.9277"/>
    <path fill="#FEFEE9" d="M 705.87317 499.96765 l 1.109 54.96 l -58.55 3.77 l -45.0 10.0 l -2.0 -39.669 c 0.0 0.0 
        -1.66 -7.33 -2.33 -9.0 s -5.33 -12.0 -5.33 -12.0 l -1.0 -14.33 l 3.33 -4.34 l 10.67 -58.33 l 36.33 0.33 l 12.67 
        8.67 c 0.0 0.0 15.66 2.33 18.0 2.33 c 1.12 0.0 14.28 -0.761 27.71 -1.561 v 0.01 l 2.171 19.63 L 705.87317 
        499.96765 z"/>
    <path fill="#FEFEE9" stroke-width="2" d="M 694.8232 270.71765 l 3.279 6.47 l -3.67 1.84 l -25.0 -17.33 l -2.33 8.33 
        l -14.67 16.67 c 0.0 0.0 3.67 5.33 4.34 7.0 c 0.66 1.66 6.0 5.66 11.0 8.33 s 14.33 11.33 14.33 11.33 l -19.33 
        36.67 l -7.0 -7.33 l -21.0 1.33 l -16.67 27.67 l -26.33 40.0 l -6.05 19.5 v 0.01 l -36.62 -1.51 c 0.0 0.0 -11.0 
        -5.34 -14.67 -6.67 c -3.659 -1.33 -18.0 -13.67 -18.0 -13.67 l -42.35 -34.3 l -31.311 -25.36 l 1.659 -8.34 c 0.0 
        0.0 22.71 -27.18 22.53 -27.9 c -0.18 -0.72 -20.41 -18.97 -20.41 -18.97 l 16.801 -20.22 l -21.311 -13.91 l -20.41 
        -12.1 c 0.0 0.0 7.4 -8.85 13.54 -12.65 c 6.141 -3.79 16.44 -11.37 18.061 -13.18 c 1.63 -1.81 7.229 -9.39 7.229 
        -9.39 s 9.93 2.17 14.45 2.35 c 4.511 0.18 11.921 0.18 11.921 0.18 l 0.18 -4.16 c 0.0 0.0 -16.979 0.36 -22.58 
        -7.94 c -5.6 -8.31 -7.039 -17.88 2.711 -22.22 c 9.75 -4.33 13.909 -7.04 15.529 -8.31 c 1.63 -1.26 13.55 -9.39 
        13.55 -9.39 l -4.699 -3.25 c 0.0 0.0 15.71 -11.92 16.62 -12.46 c 0.899 -0.54 5.42 -3.07 10.649 0.0 c 5.239 3.07 
        13.189 8.75 13.189 8.75 l 0.029 0.63 l 2.101 1.13 l 1.811 0.91 l 0.319 0.04 l 5.12 2.13 l 0.221 -0.53 l 0.43 
        0.17 l -0.199 0.55 l 4.949 1.85 l 3.141 0.92 l 0.279 -0.94 l 2.671 0.79 l -0.29 0.97 l 17.979 5.29 l 9.38 2.99 l 
        6.141 2.23 l 5.529 2.79 l 7.939 4.96 l 3.95 2.96 l 4.819 4.09 l 0.601 -0.57 l 0.5 -0.11 l 3.72 -3.72 l 0.28 0.2 
        l 0.74 -0.64 l 1.0 -0.07 l 0.92 0.47 l 0.609 0.8 l 0.021 1.01 l -0.5 0.89 l 0.2 0.17 l -3.671 3.75 l 0.881 1.65 
        l -0.48 0.67 l 4.36 4.48 l 5.91 3.72 l 3.76 3.29 l 3.979 5.46 l -0.011 1.9 l 4.69 5.33 l 2.42 2.27 l 1.979 1.26 
        l 2.12 1.62 l 1.229 2.46 l 0.369 0.51 l 1.341 -0.88 l -0.5 -0.39 l 1.779 -1.16 l 0.351 0.51 l 16.38 -10.33 l 
        -0.1 -0.19 l 0.938 -0.65 l 0.12 0.19 l 0.4 -0.21 l 4.02 -2.58 l -0.17 -0.3 l 0.73 -0.46 l 0.609 0.96 l -0.729 
        0.46 l -0.21 -0.3 l -4.431 2.78 l 0.12 0.19 l -0.99 0.63 l -0.061 -0.14 l -16.449 10.34 l 0.319 0.5 l -1.55 1.01 
        l -0.32 -0.52 l -1.38 0.84 l 0.609 0.84 l 0.79 0.98 l 1.721 0.41 l 2.149 -0.61 l 2.011 -0.84 l 2.869 -0.95 l 
        2.899 -0.36 l 2.971 0.46 l 2.72 0.82 l 4.381 1.31 l 3.021 3.33 l 4.17 1.28 l 1.62 1.03 l 0.67 1.25 l 0.22 1.38 l 
        -0.199 1.66 l -0.78 1.8 l -0.529 1.74 l -0.65 1.35 l -0.189 2.84 l -0.271 0.58 l -0.88 0.68 l -0.72 0.35 l 
        -0.391 0.05 l -0.609 0.51 l -7.801 10.34 l -0.75 0.99 l 0.131 0.48 l 0.72 0.58 l 10.17 -12.47 l 1.67 -2.41 l 
        0.67 -0.59 l 0.73 -0.18 l 0.67 0.12 l 2.89 1.479 l 1.341 1.74 l 5.289 8.79 l 0.28 0.75 l -0.021 0.97 l 0.399 
        0.62 l 1.471 0.75 l 0.989 0.33 L 694.8232 270.71765 z" stroke="#646464"/>
    <polygon fill="#FEFEE9" points="642.4322,748.69763 660.4232,813.91864 658.0222,812.08563 653.9732,809.99866 
        652.0042,809.44763 649.4322,809.1486 645.1022,809.29663 641.9422,809.7266 638.8432,810.6777 633.9422,811.95764 
        631.8922,812.3287 629.80316,812.4277 627.1632,812.05664 621.1922,810.77765 617.9132,808.85767 614.7632,807.35767 
        611.3922,805.60767 607.2542,804.1486 601.3522,803.26764 596.8432,803.4766 592.8522,804.29663 590.2722,805.06866 
        585.99316,806.77765 581.86316,807.99866 577.3432,809.98865 558.5332,817.1486 554.24316,819.48865 
        547.2132,824.23865 545.9422,825.24866 529.1022,799.69763 494.1922,769.45764 513.7722,749.69763 
        492.4322,728.69763 506.10217,721.35767 505.77222,700.35767 549.1532,691.12665 549.1532,691.1177 
        609.1022,678.35767 599.1022,711.02765 606.4322,742.8677 652.1022,732.69763"/>
    <polygon fill="#FEFEE9" points="608.7722,647.69763 613.7722,661.69763 609.1022,678.35767 549.1532,691.1177 
        532.9832,609.4667 527.74316,579.81866 603.4322,570.69763 607.4322,630.35767"/>
    <path fill="#FEFEE9" d="M 606.7722 433.02765 l -10.67 58.33 l -3.33 4.34 l 1.0 14.33 c 0.0 0.0 4.66 10.33 5.33 12.0 
        s 2.33 9.0 2.33 9.0 l 2.0 39.669 l -75.689 9.121 l -6.96 -39.431 l -3.319 -4.06 l -4.061 -55.42 l -13.54 -18.851 
        v -0.01 c 2.689 -1.63 4.909 -3.02 5.779 -3.67 c 2.95 -2.22 9.971 -13.67 11.45 -15.89 c 1.479 -2.21 14.04 -9.23 
        14.04 -9.23 l 18.97 -2.56 l 36.62 1.51 L 606.7722 433.02765 z"/>
    <path fill="#FEFEE9" d="M 550.1022 430.69766 l -18.97 2.56 c 0.0 0.0 -12.561 7.021 -14.04 9.23 c -1.479 2.22 -8.5 
        13.67 -11.45 15.89 c -0.87 0.65 -3.09 2.04 -5.779 3.67 v 0.01 c -6.45 3.91 -15.649 9.25 -15.649 9.25 s -18.84 
        11.08 -21.791 11.82 c -2.96 0.74 -25.86 8.5 -25.86 8.5 l -60.659 -18.24 l 10.819 -43.2 l 4.38 1.511 l 24.0 -21.0 
        l 19.67 -10.67 l 40.312 -23.97 l 42.35 34.3 c 0.0 0.0 14.34 12.34 18.0 13.67 C 539.1022 425.35764 550.1022 
        430.69766 550.1022 430.69766 z"/>
    <polygon fill="#FEFEE9" points="532.9832,609.4667 549.1532,691.1177 549.1532,691.12665 505.77222,700.35767 
        506.10217,721.35767 492.4322,728.69763 480.10217,733.35767 452.10217,700.69763 446.4322,707.02765 
        410.77222,674.69763 395.4322,638.02765 410.7032,632.37665 470.17322,620.91864"/>
    <path fill="#FEFEE9" d="M 529.1022 799.69763 l 16.841 25.551 l -2.479 1.979 l -4.74 4.07 l -6.199 6.73 l -4.08 5.578 
        l -3.28 4.811 l -4.521 6.631 l -3.569 4.891 l -4.7 7.07 l -5.949 9.439 l -8.65 12.279 l -2.13 3.359 l -4.989 
        7.25 l -4.511 6.391 l -0.46 0.689 l -6.029 9.24 l -8.301 11.811 l -4.54 6.578 l -0.52 2.771 l -1.7 3.26 l -2.86 
        2.201 l -4.659 5.129 l -10.841 15.82 l -29.13 -26.529 l -3.67 3.658 l -3.189 -2.229 l 3.859 -4.43 l -37.67 
        -37.342 l -4.66 -0.328 l -2.0 -2.0 l -0.67 -3.672 l -14.0 -14.658 c 0.0 0.0 -1.67 -4.67 -3.33 -6.342 c -1.67 
        -1.658 -6.67 -2.658 -6.67 -2.658 l -30.67 -28.67 c 0.0 0.0 3.34 -4.0 5.34 -3.33 c 2.0 0.658 5.0 1.0 5.0 1.0 l 
        22.761 -23.791 l 18.96 -19.811 l 17.609 -18.398 l 10.0 -10.67 l 1.67 -7.0 c 0.0 0.0 25.66 1.67 29.66 1.67 s 
        21.67 -1.0 21.67 -1.0 l 30.67 29.33 l 16.42 -16.57 L 529.1022 799.69763 z"/>
    <path fill="#FEFEE9" stroke-width="2" d="M 538.4322 144.50764 l -0.24 0.77 l -5.21 12.31 c 0.0 0.0 -7.949 -5.68 
        -13.188 -8.75 c -5.23 -3.07 -9.75 -0.54 -10.65 0.0 c -0.91 0.54 -16.62 12.46 -16.62 12.46 l 4.7 3.25 c 0.0 0.0 
        -11.92 8.13 -13.55 9.39 c -1.62 1.27 -5.78 3.98 -15.53 8.31 c -9.75 4.34 -8.31 13.91 -2.71 22.22 c 5.601 8.3 
        22.58 7.94 22.58 7.94 l -0.18 4.16 c 0.0 0.0 -7.41 0.0 -11.921 -0.18 c -4.521 -0.18 -14.45 -2.35 -14.45 -2.35 s 
        -5.601 7.58 -7.23 9.39 c -1.62 1.81 -11.92 9.39 -18.06 13.18 c -6.14 3.8 -13.54 12.65 -13.54 12.65 l -16.41 
        -10.2 l -24.96 17.3 l -30.83 36.67 l -19.0 -15.33 l -3.45 2.439 l -26.55 -40.11 l 35.34 -25.33 l -7.67 -3.67 l 
        4.33 -2.0 l -10.05 -14.73 l 79.77 -50.77 l -5.659 -8.24 l 23.439 -38.13 c 0.0 0.0 -10.82 -7.21 -15.46 -8.76 c 
        -4.63 -1.54 -18.29 -8.5 -21.12 -11.33 c -2.83 -2.84 -14.68 -11.6 -14.68 -11.6 l 21.85 -12.71 l -0.729 1.96 l 
        1.229 2.9 l 2.061 -0.24 l 2.92 -0.4 l 10.03 -17.35 l -0.221 -2.51 l 0.9 -0.98 l 1.22 0.13 l 3.34 5.11 l 1.66 
        5.33 l 2.01 6.14 l 0.761 4.77 l -2.511 2.34 l -12.93 1.03 l -10.05 9.91 l 4.06 8.07 l 1.86 1.73 l 8.49 4.19 l 
        5.239 -8.3 l 6.61 -5.33 l -0.939 -7.59 l 4.729 -3.71 l 1.15 1.58 l -3.021 2.68 l 1.7 3.37 l 2.01 2.78 l 0.65 
        0.22 l 1.01 0.33 l 0.85 -2.09 l 1.881 -2.73 l 3.659 -2.0 l 3.921 -1.62 l 3.75 0.51 l 6.989 1.83 l 3.33 0.98 l 
        2.84 2.01 l 5.891 6.09 l 0.189 0.34 l 2.03 3.54 l 1.79 3.58 l 0.13 7.03 l 1.91 0.22 l 0.68 -3.29 l 3.16 2.05 l 
        2.26 -0.09 l 3.37 -1.49 l 3.7 -0.38 l 4.52 1.79 l 4.48 2.64 l 3.49 3.24 l 1.75 5.25 l -0.381 4.47 l 5.33 2.34 l 
        5.561 3.58 l 3.47 2.6 l 2.9 3.11 l 2.13 3.63 l 1.189 3.49 l 0.689 4.82 l -0.439 4.68 l 0.359 0.02 v 0.32 v 0.32 
        l -0.41 -0.02 l -0.069 1.55 l 3.37 2.5 l 2.641 4.18 l 2.22 2.52 l 2.21 -0.64 l 1.58 0.89 l 2.17 -0.17 l 3.41 
        1.32 l 4.439 0.29 l 2.869 0.86 l 0.44 -0.02 l 0.31 -0.46 l 0.33 -0.18 l 0.312 -0.01 L 538.4322 144.50764 z"
        stroke="#646464"/>
    <path fill="#FEFEE9" d="M 527.74316 579.81866 l 5.239 29.648 l -62.81 11.449 l -59.47 11.461 l -40.061 -102.129 l 
        -15.729 -40.1 l 20.99 -16.761 l 60.659 18.24 c 0.0 0.0 22.9 -7.76 25.86 -8.5 c 2.95 -0.74 21.791 -11.82 21.791 
        -11.82 s 9.199 -5.34 15.649 -9.25 l 13.54 18.851 l 4.061 55.42 l 3.319 4.06 L 527.74316 579.81866 z"/>
    <path fill="#FEFEE9" d="M 513.7722 749.69763 l -19.58 19.76 l -16.42 16.57 l -30.67 -29.33 c 0.0 0.0 -17.67 1.0 
        -21.67 1.0 s -29.66 -1.67 -29.66 -1.67 l -1.67 7.0 l -10.0 10.67 l -17.609 18.4 l -32.641 -34.49 l 18.851 -31.4 
        l -31.04 -29.18 l -10.28 -28.189 l -32.32 -88.609 l 30.83 -18.779 l 12.141 -7.391 l 11.46 -6.28 l 37.149 -17.53 
        l 40.061 102.128 l -15.271 5.65 l 15.34 36.67 l 35.66 32.33 l 5.67 -6.33 l 28.0 32.66 l 12.33 -4.66 L 513.7722 
        749.69763 z"/>
    <path fill="#FEFEE9" d="M 467.9632 314.45764 c 0.18 0.72 -22.53 27.9 -22.53 27.9 s -22.0 -10.66 -24.66 -12.0 c -2.67 
        -1.33 -30.67 -13.33 -36.0 -15.0 c -5.34 -1.66 -19.0 -4.66 -19.0 -4.66 l -15.34 -17.67 l 30.83 -36.67 l 24.96 
        -17.3 l 16.41 10.2 l 20.41 12.1 l 21.31 13.91 l -16.8 20.22 C 447.55316 295.48764 467.7832 313.73764 467.9632 
        314.45764 z" stroke-width="2" stroke="#646464"/>
    <polygon fill="#FEFEE9" points="446.23322,963.2266 431.4632,984.78766 411.76318,1013.2576 410.27222,1015.4887 
        400.47314,1030.1367 377.11316,1062.8287 363.98218,1080.1367 359.3122,1086.1687 353.72314,1082.1367 
        349.3432,1078.8357 346.54315,1073.0468 339.6532,1065.9187 330.5932,1057.8187 322.48218,1050.4767 
        308.2832,1037.4578 301.3332,1031.1077 295.75317,1026.0377 289.27216,1020.0467 279.07318,1010.53766 
        268.36316,1000.4086 257.7032,990.4086 253.22316,987.30664 289.77216,947.69763 351.10217,1006.02765 
        410.24316,938.12665 413.4322,940.35767 417.10217,936.69763"/>
    <path fill="#FEFEE9" stroke-width="2" d="M 420.9322 97.15765 l -23.439 38.13 l 5.66 8.24 l -79.771 50.77 l -22.54 
        -32.99 l -4.74 -6.95 l 31.0 -20.0 l -35.39 -59.79 l 2.01 -0.99 l 15.931 -6.99 l 6.05 -2.78 l 9.779 -4.97 l 4.301 
        -3.27 l 7.47 -1.87 l 1.229 -0.5 l 12.58 -12.16 l 7.811 -6.7 l 1.43 -2.1 l 0.28 -5.89 l 2.03 -3.88 l 3.46 -5.33 l 
        2.76 -3.36 l 0.04 -2.91 l 2.77 -3.11 l 3.17 -2.08 l 4.53 -0.53 l 4.36 1.32 l 7.76 7.21 l 8.979 13.55 l 0.08 9.09 
        l -1.09 3.68 l -2.38 0.32 l -2.49 1.61 l -1.79 -0.15 l -3.47 4.25 l 0.26 2.38 l 1.61 2.27 l 0.35 2.08 l -21.85 
        12.71 c 0.0 0.0 11.85 8.76 14.68 11.6 c 2.83 2.83 16.49 9.79 21.12 11.33 C 410.11316 89.94765 420.9322 97.15765 
        420.9322 97.15765 z" stroke-linecap="square" stroke="#757573"/>
    <path fill="#FEFEE9" d="M 410.24316 938.12665 l -59.141 67.9 l -61.33 -58.33 l -36.55 39.609 l -2.28 -1.57 l -14.13 
        -3.75 l -2.59 -1.811 l -4.28 -8.301 l -3.289 -7.869 l -4.36 -6.641 l -6.32 -6.02 l -6.45 -3.65 l -22.229 -19.811 
        l -13.59 -12.479 l -1.85 -1.711 l -10.511 -10.119 l -3.399 -3.391 c 0.0 0.0 21.489 -15.16 25.83 -18.49 c 4.329 
        -3.34 31.659 -38.67 33.659 -42.0 c 2.0 -3.34 9.34 -8.67 12.34 -9.34 c 3.0 -0.66 9.66 -3.66 9.66 -3.66 l 34.67 
        -28.34 l 31.75 31.229 l 9.16 -25.43 l 5.92 2.221 l 9.23 -10.721 l 17.37 16.25 l -22.761 23.791 c 0.0 0.0 -3.0 
        -0.342 -5.0 -1.0 c -2.0 -0.672 -5.34 3.328 -5.34 3.328 l 30.67 28.672 c 0.0 0.0 5.0 1.0 6.67 2.658 c 1.66 1.67 
        3.33 6.342 3.33 6.342 l 14.0 14.658 l 0.67 3.67 l 2.0 2.0 l 4.66 0.33 l 37.67 37.342 L 410.24316 938.12665 z"/>
    <path fill="#FEFEE9" d="M 386.72314 430.18765 l -10.819 43.2 l -52.391 -15.75 l -25.49 20.32 l -20.689 -33.62 l 
        -2.29 -1.18 l 14.39 -48.8 c 0.0 0.0 3.67 -7.0 6.67 -8.66 c 3.0 -1.67 17.67 -16.34 17.67 -16.34 l 32.33 30.34 l 
        -5.67 23.33 l 29.34 1.33 L 386.72314 430.18765 z"/>
    <polygon fill="#FEFEE9" points="375.9032,473.38763 354.91315,490.14764 370.64215,530.2476 333.49316,547.77765 
        322.0332,554.05664 309.89215,561.44763 267.4322,495.35767 286.10217,488.69763 298.02216,477.95764 
        323.51318,457.63763"/>
    <polygon fill="#FEFEE9" points="333.85217,757.60767 366.49316,792.09766 347.5332,811.9086 330.16315,795.6586 
        320.9322,806.37665 315.01318,804.1586 305.85217,829.58563 274.10217,798.35767 192.43318,719.02765 
        230.54317,697.6177 276.10217,672.02765 287.77216,683.69763 301.10217,673.69763 311.38318,668.83563 
        321.66315,697.02765 352.7032,726.20764"/>
    <polygon fill="#FEFEE9" points="336.77216,214.69765 301.4322,240.02765 295.10217,242.35764 292.77216,239.02765 
        287.4322,242.35764 272.77216,226.69766 262.10217,216.35765 251.02217,195.98764 252.10216,195.35765 
        300.8432,161.30765 323.38318,194.29765 333.4322,209.02765 329.10217,211.02765"/>
    <polygon fill="#FEFEE9" points="301.4322,240.02765 327.98218,280.13763 275.10217,317.55765 225.43217,352.69766 
        188.10316,315.69766 154.77318,283.69766 128.77318,264.69766 125.253174,262.70764 127.10318,258.69766 
        210.10216,208.69765 214.10216,217.35765 251.02217,195.98764 262.10217,216.35765 272.77216,226.69766 
        287.4322,242.35764 292.77216,239.02765 295.10217,242.35764"/>
    <polygon fill="#FEFEE9" points="291.7132,73.56766 327.10217,133.35765 296.10217,153.35765 300.8432,160.30765 
        252.10216,194.35765 251.02217,194.98764 214.10216,216.35765 210.10216,207.69765 127.10318,257.69766 
        125.253174,261.70764 120.38318,258.95764 121.09317,257.28766 122.93317,253.61765 125.14317,249.05765 
        131.84317,231.92764 138.27318,214.97765 142.78317,202.20764 147.84317,190.12766 154.25316,178.56764 
        158.20317,164.22765 159.11317,158.17764 161.15318,152.77765 163.46318,147.68765 165.83318,143.08765 
        172.67317,139.46765 181.78319,135.20764 192.49318,128.17764 196.89217,123.867645 200.27217,121.867645 
        204.80318,120.31764 227.15318,108.647644 233.90318,105.56764 246.86317,98.867645 254.40318,94.82765 
        263.05316,90.17766 269.2032,86.477646 279.51318,80.04765 286.48218,76.127655"/>
    <path fill="#FEFEE9" d="M 306.10217 348.10764 l 7.67 21.25 c 0.0 0.0 -14.67 14.67 -17.67 16.34 c -3.0 1.66 -6.67 
        8.661 -6.67 8.661 l -44.66 -16.0 l -19.34 -25.66 l 49.67 -35.14 l 17.0 7.14 L 306.10217 348.10764 z"/>
    <polygon fill="#FEFEE9" points="279.0622,580.2266 311.38318,668.83563 301.10217,673.69763 287.77216,683.69763 
        276.10217,672.02765 179.43318,576.02765 206.45317,547.3077 255.91316,594.3287"/>
    <polygon fill="#FEFEE9" points="267.4322,495.35767 309.89215,561.44763 279.0622,580.2266 255.91316,594.3287 
        206.45317,547.3077 196.06218,537.4277 226.10216,506.02765"/>
    <path fill="#FEFEE9" d="M 277.3332 444.33765 l 20.689 33.62 l -11.92 10.74 l -18.67 6.659 l -41.33 10.671 l -30.04 
        31.399 c 0.0 0.0 -5.17 -5.91 -7.02 -7.75 c -1.85 -1.85 -19.95 -28.82 -19.95 -28.82 l -30.319 -41.5 l 44.33 
        -33.659 l 69.669 6.0 l 22.271 11.46 L 277.3332 444.33765 z"/>
    <polygon fill="#FEFEE9" points="289.4322,394.35764 275.04315,443.15765 252.77217,431.69766 183.10316,425.69766 
        155.10316,412.02765 152.37317,408.31766 225.43217,352.69766 244.77217,378.35764"/>
    <polygon fill="#FEFEE9" points="276.10217,672.02765 230.54317,697.6177 204.10216,672.35767 204.10216,667.69763 
        200.10216,668.69763 170.43318,639.69763 165.10316,641.69763 133.89317,613.58563 152.43217,592.02765 
        179.43318,576.02765"/>
    <path fill="#FEFEE9" d="M 274.10217 798.35767 l -34.67 28.34 c 0.0 0.0 -6.66 3.0 -9.66 3.66 c -3.0 0.67 -10.34 6.0 
        -12.34 9.34 c -2.0 3.33 -29.329 38.66 -33.659 42.0 c -4.341 3.33 -25.83 18.49 -25.83 18.49 l -1.931 -1.92 l 
        -1.31 -1.34 l -18.99 -17.15 l -11.41 -10.52 l -19.5 -17.98 l -21.54 -19.65 l -11.229 -10.42 l -6.271 -5.869 l 
        -11.59 -10.631 l -12.239 -11.359 l -2.011 -1.891 l 118.851 -66.76 l 24.66 -13.34 l 9.0 7.67 L 274.10217 
        798.35767 z"/>
    <path fill="#FEFEE9" d="M 230.54317 697.6177 l -38.11 21.41 l -9.0 -7.67 l -24.659 13.34 l -38.67 -34.67 l -2.33 
        -17.33 l 22.659 -4.67 c 0.0 0.0 0.141 -2.52 -4.0 -4.0 c -3.38 -1.209 -10.81 -1.279 -13.659 -2.33 c -1.551 -0.57 
        -3.431 -1.52 -5.521 -2.67 l 10.521 -3.33 l -39.53 -36.43 l 23.189 -25.91 l 22.461 20.229 l 31.21 28.111 l 5.329 
        -2.0 l 29.67 29.0 l 4.0 -1.0 v 4.66 L 230.54317 697.6177 z"/>
    <polygon fill="#FEFEE9" points="125.253174,262.70764 128.77318,264.69766 154.77318,283.69766 188.10316,315.69766 
        225.43217,352.69766 152.37317,408.31766 94.15317,329.10764 99.04317,317.26764 101.473175,309.25766 
        104.67317,300.49765 110.16318,286.45764 113.74318,277.33765 116.04317,271.22766 118.91318,263.39764 
        120.38318,259.95764" stroke-width="2"/>
    <path fill="#FEFEE9" d="M 196.06218 537.4277 l 10.391 9.88 l -27.02 28.72 l -27.0 16.0 l -18.54 21.561 l -22.46 
        -20.229 l -23.19 25.908 l -26.19 -24.129 l 23.551 -27.41 l 20.319 -21.06 l 63.17 -45.81 c 0.0 0.0 18.101 26.97 
        19.95 28.819 C 190.89317 531.51764 196.06218 537.4277 196.06218 537.4277 z"/>
    <polygon fill="#FEFEE9" points="183.10316,425.69766 138.77318,459.35764 169.09319,500.85767 105.92317,546.66766 
        85.60318,567.7266 23.873169,512.15765 34.043167,484.88763 40.35318,468.76764 41.803177,465.19766 
        46.413177,453.31766 47.393173,450.23764 49.87317,444.48764 51.783173,438.96765 54.10318,434.68765 
        54.73317,432.87766 58.20317,422.76764 60.783173,416.53766 63.70317,408.73764 67.70317,397.97766 
        73.15317,384.72766 78.16318,370.25766 80.473175,364.47766 82.52318,359.43765 84.60318,353.80765 
        86.76317,348.43765 89.54317,341.01764 92.53317,333.02765 94.15317,329.10764 152.37317,408.31766 
        155.10316,412.02765"/>
    <path fill="#FEFEE9" d="M 158.77318 724.69763 l -118.851 66.76 l -4.439 -3.92 l -5.88 -4.84 l -3.75 -4.42 l -1.07 
        -2.48 l -0.43 -0.988 l -0.801 -2.561 l -0.42 -6.42 l -0.75 -15.23 l -1.14 -21.58 l -0.76 -17.869 l -0.561 -10.93 
        l -0.439 -7.621 l -0.28 -9.318 l -1.16 -11.83 l -0.1 -2.461 l -0.55 -2.299 l -2.74 -8.871 l 0.47 -1.641 c 0.0 
        0.0 28.98 1.521 40.31 -2.479 c 11.341 -4.0 31.671 -9.0 40.341 -6.0 c 6.55 2.27 15.0 7.77 21.479 11.33 c 2.09 
        1.148 3.97 2.1 5.521 2.67 c 2.85 1.049 10.279 1.119 13.659 2.33 c 4.141 1.479 4.0 4.0 4.0 4.0 l -22.659 4.67 l 
        2.33 17.33 L 158.77318 724.69763 z"/>
    <path fill="#FEFEE9" d="M 88.24318 619.26764 l 39.53 36.43 l -10.521 3.33 c -6.479 -3.561 -14.93 -9.061 -21.479 
        -11.33 c -8.67 -3.0 -29.0 2.0 -40.34 6.0 c -11.33 4.0 -40.311 2.48 -40.311 2.48 l 2.22 -7.74 l -0.939 -16.961 l 
        -0.72 -17.449 l 40.09 -24.67 l 6.279 5.779 L 88.24318 619.26764 z"/>
    <polygon fill="#FEFEE9" points="85.60318,567.7266 62.053177,595.13666 55.77318,589.35767 15.683174,614.02765 
        15.263176,603.99866 14.223175,584.87665 13.453171,563.13666 13.003174,556.2576 12.183174,547.09766 
        12.173172,542.9277 14.063171,538.0577 18.02317,526.45764 22.643173,515.44763 23.873169,512.15765"/>
    <path fill="#FEFEE9" d="M 443.77222 350.69766 l 1.66 -8.34 c 0.0 0.0 -22.0 -10.66 -24.66 -12.0 c -2.67 -1.33 -30.67 
        -13.33 -36.0 -15.0 c -5.34 -1.66 -19.0 -4.66 -19.0 -4.66 l -0.003 -0.003 l 0.0 0.0 l -0.667 46.583 l -7.0 2.0 l 
        -24.75 28.0 c 0.0 0.0 -0.049 0.117 -0.139 0.324 l 12.889 12.096 l -5.67 23.33 l 29.34 1.33 l 16.95 5.829 l 4.38 
        1.511 l 24.0 -21.0 l 19.67 -10.67 l 40.312 -23.97 L 443.77222 350.69766 z"/>
    <path fill="#FEFEE9" d="M 333.35217 387.27765 l 24.75 -28.0 l 7.0 -2.0 l 0.667 -46.583 l 0.0 0.0 l -15.337 -17.667 l 
        -19.0 -15.33 l -3.45 2.439 l -52.88 37.42 l 17.0 7.14 l 14.0 23.41 l 7.67 21.25 l 19.441 18.244 C 333.3042 
        387.39465 333.35217 387.27765 333.35217 387.27765 z"/>
    <polyline fill="none" stroke-width="2" points="607.4362,630.36163 625.76917,624.6956 681.1022,617.36163 
        709.4362,611.36163" stroke="#646464"/>
    <polyline fill="none" stroke-width="2" points="906.6452,655.36365 900.2272,663.85565 892.9812,672.6796 
        885.8262,676.80865 876.6062,686.9456 874.8412,689.2266 874.1882,690.9067 874.0242,692.90265 874.1812,696.41064 
        874.9272,699.96466 875.9902,703.1096 880.1922,715.17163 880.3382,717.94965 880.0092,719.27765 878.8062,720.4456 
        876.9552,721.55066 872.2662,723.79663 868.9512,725.7186 866.3492,727.8677 863.4312,730.81665 855.0952,739.75366 
        853.9552,740.6096 852.5672,741.28564 850.45917,741.9067 847.1922,742.1796 844.9162,742.64465 843.0372,743.3826 
        820.8412,757.29364 818.9122,759.14465 817.6342,761.76965 817.37317,766.07465 817.1972,770.5076 
        816.8492,772.25366 816.0092,773.6257 810.3452,777.71063 804.2442,781.7507 800.2912,786.2736 794.0562,793.38666 
        792.7012,793.9927 791.0912,794.3906 788.4342,794.52765 779.5632,793.69165 769.0482,796.44165 766.2272,796.87866 
        764.3652,797.14465 756.5132,797.51166 746.9862,797.42566 744.0482,797.73065 741.0482,798.42163 737.6772,799.6647 
        734.2052,802.81665 729.9042,808.18365 727.6342,811.48065 725.0762,814.15265 723.99817,814.7656 
        722.1542,815.39465 718.5762,816.26166 716.3992,816.5156 713.95917,817.41064 711.3772,819.02765 
        706.8522,824.25366 701.3652,826.31665 692.5372,825.92163 686.7872,824.0787 681.4742,824.21063 678.9082,824.2656 
        676.9942,823.76965 675.4082,822.7266 674.7162,821.35565 674.37317,820.1096 674.3612,818.37164 674.8652,816.7266 
        675.8772,815.7427 681.5332,813.0546 683.2132,811.7897 684.04517,809.88666 684.1812,808.8757 683.8692,807.7817 
        682.3302,806.01965 680.2522,804.07465 677.6492,802.75366 675.5592,801.70764 673.2912,801.17163 
        671.5802,801.22266 670.4272,801.5787 669.0632,802.6406 668.4552,804.4296 668.7362,806.9456 669.3842,810.8287 
        669.6812,812.87164 669.3802,814.8516 668.7012,816.40265 667.3452,817.29663 665.1192,817.2346 663.3692,816.3757 
        661.1662,814.4927 658.0202,812.08563 653.9742,810.0007 652.0022,809.44965 649.4342,809.14465 645.1062,809.29663 
        641.9382,809.7266 638.8452,810.67566 633.9422,811.9537 631.8952,812.33264 629.8062,812.4296 627.1622,812.0546 
        621.1922,810.77765 617.9122,808.8596 614.7632,807.35565 611.3912,805.6096 607.2522,804.1486 601.3492,803.2656 
        596.8452,803.47266 592.8562,804.29663 590.2702,805.0626 585.99817,806.7817 581.8612,808.0007 577.3452,809.98865 
        558.5332,817.15265 554.2442,819.48865 547.2162,824.2427 543.4632,827.22266 538.7272,831.29663 532.5242,838.02765 
        528.4422,843.6096 525.1622,848.4147 520.6382,855.05066 517.0722,859.93365 512.37317,867.0076 506.42322,876.44965 
        497.7702,888.72266 495.64117,892.08765 490.65417,899.33563 486.13818,905.7266 485.6842,906.41864 
        479.6582,915.6567 471.34918,927.46466 466.8092,934.05066 466.2912,936.8206 464.5952,940.07465 461.7312,942.27765 
        457.0722,947.41064 431.46216,984.78564 411.76617,1013.2576 410.27417,1015.4887 400.47015,1030.1367 
        377.11517,1062.8247 363.97717,1080.1327 359.30914,1086.1687 353.72418,1082.1327 349.3412,1078.8357 
        346.5412,1073.0507 339.65417,1065.9218 330.59515,1057.8207 322.4812,1050.4807 308.2832,1037.4537 
        301.3332,1031.1057 295.74817,1026.0358 289.2702,1020.0506 279.07214,1010.5396 268.36115,1000.4067 
        257.7082,990.41064 250.93819,985.7427 236.81319,981.98865 234.22417,980.17566 229.94716,971.87866 
        226.65416,964.01166 222.29817,957.3677 215.97417,951.3516 209.52419,947.6956 187.29817,927.88666 
        173.70818,915.40265 171.84917,913.6956 161.34517,903.5787 156.01317,898.2656 154.70818,896.9296 
        135.71617,879.7736 124.30217,869.2576 104.80217,851.27765 83.26317,831.62866 72.03317,821.21063 
        65.76317,815.33966 54.173172,804.71063 41.931168,793.34766 39.923172,791.4537 35.47818,787.53564 
        29.607178,782.69965 25.857178,778.2817 24.783173,775.79663 24.35717,774.80865 23.55217,772.2507 
        23.13417,765.83264 22.38417,750.6016 21.244171,729.0156 20.486176,711.14465 19.92717,700.2186 
        19.486176,692.59766 19.208176,683.2817 18.048172,671.44965 17.93917,668.9846 17.396172,666.69165 
        14.650169,657.8206 17.341171,648.43365 16.404175,631.4766 15.263176,603.99664 14.220169,584.87866 
        13.45517,563.1406 12.998169,556.26166 12.185173,547.1016 12.173172,542.9296 14.068176,538.0546 
        18.021172,526.4617 22.642174,515.44965 34.04117,484.89062 40.35318,468.76965 41.806168,465.19565 
        46.415176,453.31665 47.38817,450.23465 49.87317,444.49265 51.783173,438.97266 54.099167,434.69165 
        54.732178,432.87964 58.208176,422.76566 60.78717,416.53964 63.70117,408.73865 67.70517,397.97665 
        73.15018,384.73065 78.16518,370.25464 80.47017,364.48065 82.52518,359.44165 84.60718,353.80466 
        86.767166,348.44165 89.54817,341.01566 92.53317,333.02365 99.044174,317.26965 101.47417,309.25464 
        104.67317,300.50064 110.16518,286.45364 113.74417,277.33966 116.044174,271.22665 118.91217,263.39465 
        121.09117,258.28564 122.935165,254.61365 125.13817,250.05466 131.84117,232.92966 138.27118,215.98065 
        142.78317,203.20764 147.84517,191.12564 154.24818,179.57065 158.20518,165.23065 159.11116,159.17265 
        161.15016,153.77365 163.46617,148.68765 165.83318,144.08264 172.66917,140.46565 181.77916,136.20764 
        192.49016,129.17564 196.88817,124.87164 200.27019,122.86365 204.80617,121.31265 227.15416,109.64865 
        233.90416,106.57065 246.86116,99.867645 254.39919,95.824646 263.0522,91.17966 269.2052,87.476654 
        279.51617,81.043655 286.48615,77.129654 293.72717,73.57866 309.65417,66.58266 315.70117,63.804653 
        325.47717,58.83965 329.77917,55.56265 337.25116,53.695652 338.4812,53.19965 351.05914,41.039654 
        358.87616,34.33665 360.3022,32.234653 360.5802,26.34365 362.61115,22.46865 366.07214,17.140652 
        368.8332,13.773651 368.87616,10.863651" stroke="#646464"/>
    <path fill="none" d="M 606.76917 433.02765 l -10.667 58.333 l -3.333 4.333 l 1.0 14.333 c 0.0 0.0 4.667 10.333 5.333 
        12.0 s 2.334 9.0 2.334 9.0 l 2.0 39.667 l 4.0 59.668 l 1.333 17.332 l 5.0 14.0 l -4.667 16.668 l -103.333 22.0 l 
        0.333 21.0 l -13.667 7.332 l 21.334 21.0 l -36.0 36.334 l -30.667 -29.334 c 0.0 0.0 -17.667 1.0 -21.667 1.0 s 
        -29.667 -1.666 -29.667 -1.666 l -1.667 7.0 l -10.0 10.666 l -36.568 38.213 l -17.371 -16.246 l -9.235 10.713 l 
        -5.911 -2.217 l -9.168 25.426 l -31.746 -31.221 l -34.667 28.332 c 0.0 0.0 -6.667 3.0 -9.667 3.668 c -3.0 0.666 
        -10.333 6.0 -12.333 9.332 c -2.0 3.334 -29.332 38.668 -33.666 42.0 c -4.334 3.334 -25.827 18.494 -25.827 18.494"
        stroke-width="2" stroke="#646464"/>
    <polyline fill="none" stroke-width="2" points="494.1902,769.4556 529.1022,799.6956 545.9472,825.2507" stroke="#646464"/>
    <path fill="none" stroke-width="2" d="M 92.152176 329.10565 l 60.951 82.922 l 28.0 13.667 l 69.666 6.0 l 24.565 
        12.643 l 20.688 33.618 l 25.491 -20.318 l 113.044 33.987 c 0.0 0.0 22.904 -7.758 25.86 -8.497 s 21.796 -11.821 
        21.796 -11.821 s 18.472 -10.713 21.427 -12.93 s 9.976 -13.668 11.452 -15.885 c 1.478 -2.217 14.038 -9.236 14.038 
        -9.236 l 18.972 -2.559 l 56.667 2.333 l 36.333 0.333 l 12.667 8.667 c 0.0 0.0 15.667 2.333 18.0 2.333 s 57.333 
        -3.333 57.333 -3.333 l -2.666 -38.0 l -3.0 -8.333 l 20.999 -25.0 c 0.0 0.0 -7.583 -14.917 -9.833 -17.167 s -8.5 
        -10.0 -13.0 -14.0 s -15.75 -10.0 -15.75 -10.0 l 8.75 -14.25 l 29.0 -1.5 l 17.0 12.0 l 19.75 -0.75 l 5.377 3.441 
        l 3.986 -7.708" stroke="#646464"/>
    <path fill="none" d="M 701.4772 442.80365 l 2.177 19.636 l 2.217 39.527 l 1.106 55.043 l 2.459 54.352 l 4.0 42.668 c 
        0.0 0.0 28.333 -8.666 32.333 -11.0 c 2.44 -1.424 8.479 -5.701 12.967 -9.047 l -0.301 12.045 l 6.667 -1.666 l 
        7.667 -11.666 l -0.251 -9.896 c 7.599 -6.018 17.584 -13.771 17.584 -13.771 l 19.334 -0.334 l 1.333 17.668 l 
        13.667 -14.668 l 0.666 -12.0 l 23.0 -1.0 l 6.099 -6.102 l 29.901 -38.564 l 2.333 10.0 c 0.0 0.0 10.668 1.332 
        12.334 1.332 s 7.364 -1.217 7.364 -1.217" stroke-width="2" stroke="#646464"/>
    <polyline fill="none" stroke-width="2" points="499.86517,462.05066 513.3982,480.90967 517.4632,536.32367 
        520.7882,540.38763 532.9782,609.4686 549.1582,691.1257" stroke="#646464"/>
    <polyline fill="none" stroke-width="2" points="532.9782,609.4686 470.1762,620.92163 410.69916,632.3757 
        354.9162,490.14563 375.90216,473.38666" stroke="#646464"/>
    <path fill="none" d="M 370.64417 530.24963 l -37.155 17.526 l -11.452 6.279 l -66.127 40.27 l -59.848 -56.893 c 0.0 
        0.0 -5.172 -5.91 -7.02 -7.758 c -1.847 -1.847 -19.949 -28.814 -19.949 -28.814 l -63.172 45.809 l -20.317 21.057 
        l -61.734 -55.565" stroke-width="2" stroke="#646464"/>
    <polyline fill="none" stroke-width="2" points="279.06415,580.22266 321.66718,697.0236 352.69916,726.20966 
        333.85718,757.6096 366.49017,792.09766" stroke="#646464"/>
    <path fill="none" d="M 15.1221695 656.17566 c 0.0 0.0 28.981 1.52 40.315 -2.48 s 31.667 -9.0 40.333 -6.0 s 20.667 
        11.666 27.0 14.0 c 2.851 1.049 10.278 1.123 13.667 2.332 c 4.138 1.477 4.0 4.0 4.0 4.0 l -22.667 4.668 l 2.333 
        17.332 l 38.667 34.668 l 24.667 -13.334 l 9.0 7.666 l 83.666 -47.0 l 11.667 11.668 l 13.333 -10.0 l 10.282 
        -4.859" stroke-width="2" stroke="#646464"/>
    <path fill="none" d="M 152.37617 408.31665 l 73.061 -55.624 l 106.0 -75.0 l 19.0 15.333 l 15.333 17.667 c 0.0 0.0 
        13.667 3.0 19.0 4.667 s 33.333 13.667 36.0 15.0 s 24.667 12.0 24.667 12.0 l -1.667 8.333 l 73.667 59.667 c 0.0 
        0.0 14.332 12.333 17.999 13.667 s 14.667 6.667 14.667 6.667" stroke-width="2" stroke="#646464"/>
    <polyline fill="none" points="291.7132,74.56566 327.10217,134.36064 296.10217,154.36064 333.43616,209.02765 
        329.10217,211.02765 336.76917,214.69464 301.43616,240.02765 327.98517,280.13666" stroke="#646464"/>
    <path fill="none" d="M 445.43622 342.36066 c 0.0 0.0 22.707 -27.183 22.526 -27.906 c -0.181 -0.723 -20.409 -18.964 
        -20.409 -18.964 l 16.796 -20.229 l -21.312 -13.907 l -20.409 -12.101 c 0.0 0.0 7.405 -8.85 13.546 -12.643 s 
        16.437 -11.378 18.062 -13.185 c 1.625 -1.807 7.224 -9.392 7.224 -9.392 s 9.935 2.167 14.449 2.348 c 4.514 0.181 
        11.92 0.181 11.92 0.181 l 0.181 -4.154 c 0.0 0.0 -16.977 0.361 -22.576 -7.947 c -5.599 -8.308 -7.044 -17.88 
        2.709 -22.215 s 13.906 -7.043 15.532 -8.308 s 13.546 -9.392 13.546 -9.392 l -4.694 -3.251 c 0.0 0.0 15.712 
        -11.92 16.614 -12.462 c 0.903 -0.542 5.418 -3.07 10.656 0.0 c 5.238 3.07 13.188 8.754 13.188 8.754" stroke="#646464"/>
    <path fill="none" d="M 586.7212 432.20264 l 6.049 -19.508 l 26.333 -40.0 l 16.667 -27.667 l 21.0 -1.333 l 7.0 7.333 
        l 19.333 -36.667 c 0.0 0.0 -9.333 -8.667 -14.333 -11.333 s -10.333 -6.666 -11.0 -8.333 s -4.334 -7.0 -4.334 -7.0 
        l 14.667 -16.667 l 2.333 -8.333 l 25.0 17.333 l 3.671 -1.837" stroke="#646464"/>
    <path fill="none" d="M 323.3802 194.30165 l 79.777 -50.775 l -5.667 -8.243 l 23.441 -38.125 c 0.0 0.0 -10.818 -7.213 
        -15.456 -8.759 c -4.637 -1.546 -18.291 -8.5 -21.124 -11.334 s -14.684 -11.592 -14.684 -11.592 l 21.853 -12.715"
        stroke="#646464"/>
    <polyline fill="none" stroke-width="1.7008" points="350.43616,293.02765 381.26117,256.35764 406.22217,239.05966 
        422.6302,249.25464" stroke="#646464"/>
    <polyline fill="none" stroke-width="1.7008" points="300.84814,161.30865 252.10216,195.36064 214.10216,217.36064 
        210.10216,208.69464 127.10318,258.69464 125.10318,263.02765" stroke="#646464"/>
    <polyline fill="none" stroke-width="1.7008" points="120.38017,259.95465 128.77017,264.69464 154.77019,283.69464 
        188.10316,315.69464 225.43617,352.69464 244.76918,378.36066 289.43616,394.36066" stroke="#646464"/>
    <polyline fill="none" stroke-width="1.7008" points="251.02617,195.98465 262.10217,216.36064 272.76917,226.69464 
        287.43616,242.36066 292.76917,239.02765 295.10217,242.36066 301.43616,240.02765" stroke="#646464"/>
    <path fill="none" d="M 275.03815 443.15366 l 14.397 -48.793 c 0.0 0.0 3.667 -7.0 6.667 -8.667 s 17.667 -16.333 
        17.667 -16.333" stroke-width="1.7008" stroke="#646464"/>
    <polyline fill="none" stroke-width="1.7008" points="275.1012,317.55365 292.10217,324.69464 306.10217,348.10464 
        313.76917,369.36066 346.10217,399.69464 340.43616,423.02765 369.76917,424.36066 391.10217,431.69464 
        415.10217,410.69464 434.76917,400.02765 475.08118,376.05466" stroke="#646464"/>
    <line fill="none" x1="386.72418" x2="375.90216" y1="430.18964" y2="473.38666" stroke="#646464" stroke-width="1.7008"/>
    <polyline fill="none" stroke-width="1.7008" points="196.06117,537.43164 226.10216,506.02765 267.43616,495.36066 
        286.10217,488.69366 298.0232,477.95465" stroke="#646464"/>
    <line fill="none" x1="309.8952" x2="267.43616" y1="561.44965" y2="495.36066" stroke="#646464" stroke-width="1.7008"/>
    <polyline fill="none" stroke-width="1.7008" points="183.10316,425.69363 138.77017,459.36066 169.09416,500.85864"
        stroke="#646464"/>
    <polyline fill="none" stroke-width="1.7008" points="15.680176,614.0317 55.770172,589.36163 127.77017,655.6956 
        117.254166,659.02966" stroke="#646464"/>
    <line fill="none" x1="62.04718" x2="85.60417" y1="595.14465" y2="567.7247" stroke="#646464" stroke-width="1.7008"/>
    <polyline fill="none" stroke-width="1.7008" points="88.236176,619.2736 111.43718,593.36163 165.10316,641.6956 
        170.43718,639.6956 200.10216,668.6956 204.10216,667.6956 204.10216,672.36163 230.54216,697.62366" stroke="#646464"/>
    <polyline fill="none" stroke-width="1.7008" points="133.89818,613.58966 152.43718,592.02765 179.43718,576.02765 
        206.45317,547.30963" stroke="#646464"/>
    <line fill="none" x1="179.43718" x2="276.10217" y1="576.02765" y2="672.02765" stroke="#646464" stroke-width="1.7008"/>
    <polyline fill="none" stroke-width="1.7008" points="492.43518,728.6956 480.10217,733.36163 452.10217,700.6956 
        446.43622,707.02765 410.76917,674.6956 395.43616,638.02765 410.69916,632.3757" stroke="#646464"/>
    <line fill="none" x1="192.43718" x2="274.10217" y1="719.02765" y2="798.36163" stroke="#646464" stroke-width="1.7008"/>
    <line fill="none" x1="39.923172" x2="158.77019" y1="791.4537" y2="724.6956" stroke="#646464" stroke-width="1.7008"/>
    <polyline fill="none" stroke-width="1.7008" points="446.2362,963.22266 417.10217,936.69366 413.43622,940.36163 
        410.10217,938.02765" stroke="#646464"/>
    <path fill="none" d="M 253.21617 987.3126 l 36.554 -39.619 l 61.333 58.334 l 63.0 -72.334 L 376.43518 896.36163 l 
        -4.667 -0.334 l -2.0 -2.0 l -0.667 -3.666 l -14.0 -14.668 c 0.0 0.0 -1.666 -4.666 -3.333 -6.332 c -1.667 -1.668 
        -6.667 -2.668 -6.667 -2.668 l -30.667 -28.664 c 0.0 0.0 3.333 -4.002 5.333 -3.334 c 2.0 0.666 5.0 1.0 5.0 1.0 l 
        22.766 -23.789" stroke-width="1.7008" stroke="#646464"/>
    <polyline fill="none" stroke-width="1.7008" points="527.7462,579.81665 603.4362,570.6956 648.4362,560.6956 
        778.1022,552.36066" stroke="#646464"/>
    <polyline fill="none" stroke-width="1.7008" points="609.1022,678.36163 599.1022,711.02765 606.4362,742.86566 
        652.1022,732.6956 663.1022,731.36163 663.76917,725.36163 708.76917,703.36163 708.1022,695.36163 
        715.76917,691.02765 713.4362,654.02966" stroke="#646464"/>
    <polyline fill="none" stroke-width="1.7008" points="660.42017,813.9197 642.4362,748.6956 652.1022,732.6956" stroke="#646464"/>
    <polyline fill="none" stroke-width="1.7008" points="826.38916,753.81665 821.4362,725.02765 815.1022,668.02765 
        810.76917,626.36163" stroke="#646464"/>
    <polyline fill="none" stroke-width="1.7008" points="787.2192,611.27167 780.76917,598.6956 779.4352,585.02765 
        778.1022,545.69366 830.1022,541.02765" stroke="#646464"/>
    <polyline fill="none" stroke-width="1.7008" points="848.1022,598.6956 834.4352,585.6956 830.10016,541.02765 
        823.4352,453.02765 817.76917,435.36066" stroke="#646464"/>
    <polyline fill="none" stroke-width="1.7008" points="705.8712,501.96667 808.76917,493.02765 815.1022,486.02765 
        818.76917,485.69366 821.76917,488.36066 826.0822,487.95367" stroke="#646464"/>
    <polyline fill="none" stroke-width="1.7008" points="731.1022,441.02765 817.76917,435.36066 847.6022,433.52765 
        846.8522,430.77765 863.3522,422.52765 871.2032,418.69666" stroke="#646464"/>
    <polyline fill="none" stroke-width="1.7008" points="333.35217,387.27765 358.10217,359.27765 365.10217,357.27765 
        365.76917,310.69464" stroke="#646464"/>
</svg>