<?xml version="1.0" standalone="no"?>
<svg width="900" xmlns:svg="http://www.w3.org/2000/svg" height="1000" preserveAspectRatio="xMidYMid meet" xmlns="http://www.w3.org/2000/svg">
    <g>
        <title>Layer 1</title>
        <g id="svg_4" stroke-width="2" stroke="#646464">
            <path fill="#FEFEE9" id="svg_5" d="m 976.75806 604.35767 l 0.51099 3.10199 l -8.81201 8.229 l -6.0 2.16998 l 
                -6.38 0.77905 l -0.63995 -3.56805 l -4.34003 -2.47998 l -9.19 -9.31097 l -10.58997 0.62097 l 0.76099 
                1.85901 l 13.659 13.34003 l -7.14899 3.41998 l -8.68103 -7.77002 l -4.07898 3.729 l -7.79102 -8.06097 l 
                -8.67999 7.13098 l 4.72101 16.289 l 7.91998 1.711 l -13.271 5.89099 l -6.13 -2.47998 l -2.97998 -2.01001 
                l -5.82904 -15.93903 l -4.87 -0.60199 l -7.15997 -8.11896 l -0.37 0.30096 l -4.19904 -3.29102 l 0.25 
                -0.539 l -16.95996 -12.961 l -9.26099 -7.06799 l -1.76001 2.19904 l -4.20001 -3.13104 l 29.10901 
                -37.54895 l 2.33002 10.0 c 0.0 0.0 10.66998 1.32996 12.34094 1.32996 c 1.65906 0.0 7.35901 -1.211 
                7.35901 -1.211 l 0.0 0.92999 l 6.81903 2.47101 l 4.43097 -0.229 l 4.60101 -4.47998 l 4.59003 -0.09998 l 
                3.27899 0.80896 l 2.56097 -1.38898 l 4.341 -0.29102 l 3.479 1.18903 l -0.729 2.76196 l -0.23999 0.90802 
                l -0.09003 0.34198 l -3.85895 1.31799 l -4.11005 -3.37897 l -2.20996 1.18896 l -1.81 2.68903 l 0.01996 
                3.61902 l 0.86005 2.64996 l 1.14899 2.01001 l 1.25 2.021 l 0.18097 3.13904 l 0.729 1.11096 l 0.85999 
                1.64801 l 0.06903 1.271 l 3.14099 2.45898 l 3.5 -0.89099 l 2.54999 -1.19897 l -1.46997 -1.82001 l 
                -1.47003 0.53101 l -1.73999 -0.15002 l -1.83997 -1.29102 l -0.93103 -2.07996 l 0.13 -1.86902 l 0.91998 
                -1.61902 l 2.25 -1.29095 l 2.56104 0.22998 l 2.14996 2.02899 l 0.25 3.13098 l -0.88098 1.58002 l 1.73901 
                1.81799 l 0.82001 -2.14099 l 0.51001 -3.40997 l -1.68005 -3.56799 l -1.27997 -4.10205 l 0.64099 -6.17999 
                l 3.22101 -4.45898 l 10.08002 -2.01202 l 5.73895 0.93201 l 1.409 -0.78101 l 7.65997 1.09003 l 2.55103 
                4.5 l 1.39905 3.10199 l 0.51001 6.211 l 1.65991 2.77899 l 1.15002 3.58002 l -2.68201 2.93903 l -7.26996 
                -0.461 l -5.75 -0.16003 l -5.73999 -0.14801 l -3.31903 -1.39996 l -3.31897 0.461 l -2.41998 2.32996 l 
                3.81799 4.35004 l 2.56201 -1.86902 l 6.12 0.15802 l 3.44897 2.16998 l 7.27899 6.97998 l 8.17004 2.02002 
                l 0.63098 1.08002 l 7.41199 8.22198 z" transform="matrix(0.9183673 0.0 0.0 0.9183673 1.9661778 0.94475496)"/>
            <polygon fill="#FEFEE9" id="svg_6" points="896.9071,651.5886 890.48804,660.07837 883.24805,668.8987 
                876.08813,673.0276 866.86707,683.1687 865.10815,685.4475 864.45703,687.12964 864.2871,689.12964 
                864.447,692.62964 865.1881,696.18774 866.25806,699.32837 870.45703,711.3899 870.5991,714.1687 
                870.2781,715.4983 869.0681,716.6687 867.218,717.7678 862.5281,720.0178 859.218,721.93774 
                856.61707,724.0886 853.697,727.0393 845.35815,735.97876 844.218,736.82837 842.82715,737.50854 
                840.728,738.12964 837.45703,738.3987 835.1781,738.8694 833.2981,739.60767 816.6571,750.0393 
                811.697,721.2483 805.36707,664.2483 801.0371,622.57837 814.697,607.9187 815.36707,595.9187 
                838.36707,594.9187 844.468,588.8186 848.5281,592.07837 846.978,594.00854 876.57715,617.1399 
                881.4281,623.79956 883.697,628.8069 886.37805,637.4597 888.4381,643.85767 889.6781,647.6194" transform="matrix(0.9183673 0.0 0.0 0.9183673 1.9661778 0.94475496)"/>
        </g>
        <g id="svg_7" stroke-width="2" stroke="#7c7c79">
            <path fill="#FEFEE9" id="svg_8" d="m 952.0681 526.5886 l 1.35901 10.88 l -0.63 3.90002 l -1.84003 2.229 l 
                -2.211 2.23999 l -3.51996 0.73999 l -2.13 -0.53003 l -2.64203 0.23999 l -10.69897 3.35901 l -12.159 
                -1.56 l -8.67102 -1.12 l -5.71002 7.16101 l -6.81897 4.26001 l 0.0 1.39996 l 0.0 0.58002 c 0.0 0.0 
                -5.70001 1.20898 -7.35999 1.20898 c -1.67004 0.0 -12.34003 -1.32996 -12.34003 -1.32996 l -2.33002 -10.0 
                l -29.10895 37.55096 l -1.01105 -0.75 l -3.35901 -2.5 l -2.909 -30.211 l -3.56097 0.30103 l -0.5 -4.25 l 
                0.0 -0.04102 l 3.56897 -0.37 l -2.94995 -30.67999 l -3.57904 0.16998 l -0.341 -4.26001 l 3.63 -0.47101 l 
                -3.5 -37.24997 l -3.66998 0.32999 l -0.38 -3.94901 l 3.81104 -0.311 l -3.25 -34.35999 l -3.69904 0.42099 
                l -0.75 -8.94998 l 15.06 -0.92001 l -0.75 -2.75 l 16.5 -8.25 l 7.85101 -3.82999 l 7.25 1.25 l 2.66998 
                1.16998 l 1.06104 -0.20999 l 3.46997 1.75 l 2.771 2.35001 l 4.26001 2.13 l 5.15997 4.47098 l 0.55005 
                2.68002 l 7.91998 8.73999 l 4.06097 2.229 l 2.03003 3.59 l 3.86902 3.14099 l 2.02997 2.45999 l 3.13 
                1.56003 l 0.91998 2.68997 l 3.5 1.79001 l 1.11005 2.47 l 0.77899 0.57001 l 2.35095 13.31 l 0.92004 
                2.01001 l 1.85101 11.43097 l 7.37 5.37 l 1.729 0.85004 l 13.159 12.03998 l 0.42096 1.33002 l 2.56903 
                3.25 l 3.68799 17.25 z" transform="matrix(0.9183673 0.0 0.0 0.9183673 1.9661778 0.94475496)"/>
            <polygon fill="#FEFEE9" id="svg_9" points="844.468,588.8186 838.36707,594.9187 824.697,581.9187 
                820.36707,537.2483 816.3491,484.17856 813.697,449.24838 808.0371,431.57846 821.57715,430.74838 
                822.218,439.77866 818.6781,440.17856 822.0281,474.22885 825.447,473.92856 825.87805,477.94858 
                825.87805,477.95883 822.37805,478.29868 824.1481,497.42856 825.75806,515.4983 829.5481,515.2986 
                829.968,519.5686 829.98804,519.8186 826.1481,520.0989 828.99805,550.7097 832.718,550.5276 
                833.197,554.7097 829.38806,555.18774 832.36707,586.1194 840.20703,585.3987 843.468,588.0178" transform="matrix(0.9183673 0.0 0.0 0.9183673 1.9661778 0.94475496)"/>
        </g>
        <g id="svg_10" stroke-width="2" stroke="#646464">
            <polygon fill="#FEFEE9" id="svg_11" points="833.65405,427.88657 830.4431,416.8436 832.8771,416.3314 
                835.4751,424.55893 839.978,423.5306 850.8501,417.723 851.2091,414.50375 858.72107,414.61655 
                860.47314,414.9188 852.62305,418.74985 836.12305,426.99985 836.87305,429.74985 821.8141,430.67465 
                821.8191,430.68393 821.68604,429.07748" transform="matrix(0.9183673 0.0 0.0 0.9183673 1.9661778 0.94475496)"/>
            <path fill="#FEFEE9" id="svg_12" d="m 854.6731 367.41977 l 0.06897 6.73999 l -28.44897 7.09 l -13.53998 3.38 
                l 0.19897 1.60001 l 1.53998 1.5 l 0.66003 0.45999 l 1.81097 0.021 l 1.85101 0.64001 l 1.56903 1.35999 l 
                0.47095 1.22 l 9.92004 18.55002 l -0.06104 0.62 l -0.81097 0.70999 l -0.91003 0.36002 l -0.63995 
                -0.29001 l -5.56104 -9.95999 l -0.93896 0.38 l -4.341 -8.82001 l -1.37 0.561 l 4.521 8.76999 l -2.72003 
                1.41 l -3.80096 -7.76001 l -1.229 0.56 l 3.961 7.83002 l -9.591 5.07999 l 5.79999 20.229 l 7.38098 
                -0.60001 l 0.11902 1.69 l -13.539 0.82901 l -86.66998 5.67099 l -2.67102 -38.0 l -3.0 -8.32999 l 21.0 
                -25.0 c 0.0 0.0 -7.57898 -14.92001 -9.82898 -17.17001 s -8.5 -10.0 -13.0 -14.0 s -15.75 -10.0 -15.75 
                -10.0 l 8.75 -14.25 l 29.0 -1.5 l 17.0 12.0 l 19.75 -0.75 l 5.38 3.44 l 3.979 -7.70999 l 31.84998 
                -2.52002 l 13.45001 8.95001 l 0.0 2.47 l -26.729 2.72 l 0.0 0.85999 l 8.66998 6.04001 l 31.33002 -2.91 l 
                10.68903 7.39001 l 0.0 2.69 l -27.83002 3.13 l 4.72101 5.54999 l 0.01001 0.0 l 0.80096 0.95001 l 8.89099 
                -0.95001 l 0.01001 0.0 l 16.54004 -1.75 l 0.91998 11.20999 l -19.72003 1.34 l 0.729 7.61002 l 19.35901 
                -1.341 z" transform="matrix(0.9183673 0.0 0.0 0.9183673 1.9661778 0.94475496)"/>
        </g>
        <path fill="#FEFEE9" id="svg_13" d="m 838.36707 594.9187 l -23.0 1.0 l -0.66998 12.0 l -13.66003 14.65997 l 
            -1.33997 -17.65997 l -19.33002 0.33002 c 0.0 0.0 -1.10901 0.87097 -2.88 2.23999 l -6.45001 -12.57001 l 
            -1.33997 -13.66998 l -1.10901 -32.67999 l -0.22101 -6.64905 l 52.0 -4.66998 l 4.33002 44.66901 l 13.66998 
            13.0 z" transform="matrix(0.9183673 0.0 0.0 0.9183673 1.9661778 0.94475496)"/>
        <polygon fill="#FEFEE9" id="svg_14" points="816.3491,484.17856 820.36707,537.2483 768.36707,541.9187 
            768.58813,548.5686 768.36707,548.57837 697.24805,553.1487 696.13806,498.1888 799.0371,489.24838 
            805.36707,482.24838 809.0371,481.9188 812.0371,484.57846" transform="matrix(0.9183673 0.0 0.0 0.9183673 1.9661778 0.94475496)"/>
        <path fill="#FEFEE9" id="svg_15" d="m 811.697 721.2483 l 4.96002 28.79102 l -5.55005 3.479 l -1.93097 1.85199 l 
            -1.27899 2.61896 l -0.26099 4.31104 l -0.18005 4.42999 l -0.34094 1.75 l -0.84003 1.36902 l -5.66998 4.07996 
            l -6.10101 4.04102 l -3.94904 4.52899 l -6.23999 7.10901 l -1.35095 0.60199 l -1.60901 0.39801 l -2.66003 
            0.14099 l -8.87 -0.83997 l -10.51001 2.75 l -2.82996 0.43896 l -1.85901 0.271 l -7.85101 0.35901 l -9.53003 
            -0.07996 l -2.92999 0.29895 l -3.0 0.68903 l -3.38 1.25 l -3.47095 3.15002 l -4.30005 5.37097 l -2.271 3.289 
            l -2.56097 2.66998 l -1.08002 0.61902 l -1.841 0.63098 l -3.58002 0.85901 l -2.16998 0.26001 l -2.43799 
            0.89099 l -2.591 1.62103 l -4.521 5.22894 l -5.48999 2.06104 l -8.82904 -0.40002 l -5.75 -1.83997 l -5.31097 
            0.13098 l -2.57001 0.06097 l -1.909 -0.5 l -1.591 -1.04095 l -0.68799 -1.36902 l -0.341 -1.25 l -0.01099 
            -1.73999 l 0.5 -1.64099 l 1.01099 -0.98804 l 5.659 -2.68201 l 1.68201 -1.26996 l 0.83002 -1.90002 l 0.13995 
            -1.01001 l -0.31097 -1.09998 l -1.539 -1.76202 l -2.08002 -1.93896 l -2.60199 -1.31799 l -2.08997 -1.05103 l 
            -2.27002 -0.54102 l -1.71002 0.06104 l -1.15997 0.35199 l -1.35999 1.06097 l -0.60901 1.789 l 0.27899 2.521 
            l 0.65002 3.87903 l 0.29999 2.04102 l -0.29999 1.979 l -0.68103 1.56097 l -1.35901 0.89099 l -2.22101 
            -0.06097 l -1.75 -0.85901 l -2.20996 -1.89099 l -0.73901 -0.57001 l -17.98999 -65.21899 l 9.66998 -16.0 l 
            11.0 -1.34204 l 0.66998 -6.0 l 45.0 -22.0 l -0.66998 -8.0 l 7.66998 -4.328 l -2.33997 -37.0 c 0.0 0.0 
            28.33997 -8.672 32.33997 -11.0 c 2.44 -1.422 8.47003 -5.70099 12.96002 -9.04095 l -0.29999 12.04095 l 
            6.66998 -1.672 l 7.66998 -11.65796 l -0.25 -9.90002 c 5.06201 -4.01001 11.18103 -8.789 14.70001 -11.52899 c 
            1.77002 -1.37097 2.88 -2.23999 2.88 -2.23999 l 19.33002 -0.33002 l 1.33997 17.66003 l 4.33002 41.66998 l 
            6.336 56.995 z" transform="matrix(0.9183673 0.0 0.0 0.9183673 1.9661778 0.94475496)"/>
        <path fill="#FEFEE9" id="svg_16" d="m 813.697 449.24838 l 2.65002 34.92999 l -4.31201 0.40002 l -3.0 -2.66003 l 
            -3.66998 0.33002 l -6.33002 7.0 l -102.89899 8.93903 l -2.22003 -39.52902 l -2.17102 -19.63101 l 0.0 
            -0.01001 c 14.65002 -0.85898 29.62006 -1.76999 29.62006 -1.76999 l 86.66998 -5.66998 l 5.66199 17.67099 z"
            transform="matrix(0.9183673 0.0 0.0 0.9183673 1.9661778 0.94475496)"/>
        <path fill="#FEFEE9" d="m 798.1881 303.37875 l 0.17999 2.47 l -26.909 2.97 l -0.02997 0.87 l 8.55096 6.29001 l 
            -3.979 7.70999 l -5.38098 -3.44 l -19.75 0.75 l -17.0 -12.0 l -29.0 1.5 l -8.75 14.25 c 0.0 0.0 11.25 6.0 
            15.75 10.0 s 10.75 11.75 13.0 14.0 s 9.83002 17.17001 9.83002 17.17001 l -21.0 25.0 l 3.0 8.32999 l 2.66998 
            38.0 c 0.0 0.0 -14.97003 0.909 -29.61902 1.76999 c -13.43097 0.80002 -26.591 1.561 -27.70996 1.561 c -2.341 
            0.0 -18.0 -2.32999 -18.0 -2.32999 l -12.67102 -8.67001 l -36.32898 -0.32999 l -20.05103 -0.82001 l 0.0 
            -0.01001 l 6.05103 -19.5 l 26.32898 -40.0 l 16.67102 -27.66998 l 21.0 -1.33002 l 7.0 7.33002 l 19.32898 
            -36.66998 c 0.0 0.0 -9.32898 -8.66 -14.32898 -11.33002 s -10.341 -6.66998 -11.0 -8.32999 c -0.67102 -1.67001 
            -4.341 -7.0 -4.341 -7.0 l 14.66998 -16.67001 l 2.33002 -8.32999 l 25.0 17.32999 l 3.66998 -1.84 l 0.70001 
            1.38 l 9.23999 6.54999 l 28.02002 19.53 l 9.88098 -0.87 l 3.25 -4.54999 l -42.521 -29.30002 l 2.14001 
            -3.67999 l 1.63098 -1.13998 l 0.33002 -2.31003 l 43.57898 -3.87 l 2.22101 1.57001 l 2.02899 10.75 l 12.62 
            9.06 l 0.229 2.91 l -26.81903 2.64999 l 0.42004 0.76001 l 8.20001 6.10001 l 32.06897 -2.23001 l 23.599 
            15.659 z" id="svg_17" stroke-width="2" transform="matrix(0.9183673 0.0 0.0 0.9183673 1.9661778 0.94475496)"
            stroke="#646464"/>
        <path fill="#FEFEE9" id="svg_18" d="m 771.0371 594.9187 l 6.45001 12.57001 c -3.521 2.73999 -9.64001 7.51996 
            -14.70001 11.52899 l 0.25 9.90002 l -7.66998 11.65997 l -6.67004 1.66998 l 0.30103 -12.04095 c -4.48999 
            3.33997 -10.521 7.62097 -12.961 9.04095 c -4.0 2.33002 -32.34003 11.0 -32.34003 11.0 l -4.0 -42.66998 l 
            -2.44995 -54.35199 l 0.0 -0.08002 l 71.12 -4.56897 l 0.22101 -0.01105 l 1.10895 32.68103 l 1.34003 13.672 z"
            transform="matrix(0.9183673 0.0 0.0 0.9183673 1.9661778 0.94475496)"/>
        <polygon fill="#FEFEE9" id="svg_19" points="703.697,650.2483 706.0371,687.2483 698.36707,691.57837 
            699.0371,699.57837 654.0371,721.57837 653.36707,727.57837 642.36707,728.9187 596.697,739.0886 
            589.36707,707.2483 599.36707,674.57837 604.0371,657.9187 599.0371,643.9187 597.697,626.57837 
            616.0371,620.9187 671.36707,613.57837 699.697,607.57837" transform="matrix(0.9183673 0.0 0.0 0.9183673 1.9661778 0.94475496)"/>
        <polygon fill="#FEFEE9" id="svg_20" points="697.24805,553.22876 699.697,607.57837 671.36707,613.57837 
            616.0371,620.9187 597.697,626.57837 593.697,566.9187 638.697,556.9187 697.24805,553.1487" transform="matrix(0.9183673 0.0 0.0 0.9183673 1.9661778 0.94475496)"/>
        <path fill="#FEFEE9" id="svg_21" d="m 696.13806 496.1888 l 1.10901 54.96002 l -58.54999 3.76996 l -45.0 10.0 l 
            -2.0 -39.66901 c 0.0 0.0 -1.66003 -7.32996 -2.33002 -9.0 s -5.33002 -12.0 -5.33002 -12.0 l -1.0 -14.32996 l 
            3.33002 -4.34003 l 10.66998 -58.32999 l 36.33002 0.32999 l 12.66998 8.67001 c 0.0 0.0 15.66003 2.32999 18.0 
            2.32999 c 1.12 0.0 14.28003 -0.76099 27.71002 -1.561 l 0.0 0.01001 l 2.17102 19.63 l 2.21997 39.53 z"
            transform="matrix(0.9183673 0.0 0.0 0.9183673 1.9661778 0.94475496)"/>
        <path fill="#FEFEE9" stroke-width="2" id="svg_22" d="m 685.08813 266.9388 l 3.27899 6.47 l -3.66998 1.84 l -25.0 
            -17.32999 l -2.33002 8.32999 l -14.66998 16.67001 c 0.0 0.0 3.66998 5.32999 4.33997 7.0 c 0.66003 1.65997 
            6.0 5.65997 11.0 8.32999 s 14.33002 11.32999 14.33002 11.32999 l -19.33002 36.67001 l -7.0 -7.32999 l -21.0 
            1.32999 l -16.66998 27.67001 l -26.33002 40.0 l -6.04999 19.5 l 0.0 0.00998 l -36.62 -1.50998 c 0.0 0.0 
            -11.0 -5.34003 -14.66998 -6.67001 c -3.659 -1.32999 -18.0 -13.67001 -18.0 -13.67001 l -42.35004 -34.29999 l 
            -31.31097 -25.35999 l 1.659 -8.34003 c 0.0 0.0 22.71002 -27.17999 22.53003 -27.89999 c -0.18005 -0.72 
            -20.41003 -18.97 -20.41003 -18.97 l 16.80103 -20.22 l -21.311 -13.91 l -20.41 -12.09998 c 0.0 0.0 7.39999 
            -8.85001 13.53998 -12.65002 c 6.14102 -3.78998 16.44003 -11.37 18.06104 -13.17999 c 1.62997 -1.81 7.229 
            -9.39 7.229 -9.39 s 9.92999 2.17 14.45001 2.35001 c 4.51099 0.17999 11.92096 0.17999 11.92096 0.17999 l 
            0.17999 -4.15999 c 0.0 0.0 -16.979 0.36 -22.58002 -7.94 c -5.59998 -8.31 -7.03897 -17.88 2.711 -22.22 c 9.75 
            -4.33 13.90906 -7.04001 15.52905 -8.31 c 1.63 -1.26001 13.54999 -9.39 13.54999 -9.39 l -4.69897 -3.25 c 0.0 
            0.0 15.70996 -11.92 16.62 -12.46001 c 0.89899 -0.53999 5.41998 -3.06999 10.64899 0.0 c 5.23901 3.07001 
            13.18896 8.75 13.18896 8.75 l 0.02905 0.63 l 2.10095 1.12999 l 1.81104 0.91 l 0.31897 0.04001 l 5.12 2.12999 
            l 0.22101 -0.53 l 0.42999 0.17 l -0.19897 0.55 l 4.94897 1.85001 l 3.14099 0.92 l 0.27905 -0.94 l 2.67096 
            0.78999 l -0.28998 0.97 l 17.979 5.29001 l 9.38 2.98999 l 6.14099 2.23001 l 5.52899 2.78999 l 7.93903 
            4.96001 l 3.94995 2.95999 l 4.81903 4.09001 l 0.60101 -0.57001 l 0.5 -0.11 l 3.71997 -3.72 l 0.28003 0.2 l 
            0.73999 -0.64 l 1.0 -0.06999 l 0.91998 0.47 l 0.60901 0.8 l 0.021 1.00999 l -0.5 0.89 l 0.20001 0.17 l 
            -3.67102 3.75 l 0.88098 1.64999 l -0.47998 0.67001 l 4.35999 4.48 l 5.91003 3.72 l 3.76001 3.28999 l 3.979 
            5.46001 l -0.01105 1.89999 l 4.69 5.33 l 2.42004 2.27 l 1.979 1.25999 l 2.12 1.62 l 1.229 2.46001 l 0.36896 
            0.51001 l 1.341 -0.88 l -0.5 -0.39001 l 1.77899 -1.15999 l 0.35101 0.50999 l 16.38 -10.33 l -0.09998 
            -0.18999 l 0.93799 -0.65001 l 0.12 0.19 l 0.40002 -0.21001 l 4.01996 -2.57999 l -0.16998 -0.3 l 0.72998 
            -0.46001 l 0.60901 0.96001 l -0.729 0.45999 l -0.20996 -0.3 l -4.43103 2.78001 l 0.12 0.18999 l -0.98999 
            0.63 l -0.06097 -0.14 l -16.44904 10.34 l 0.31903 0.50002 l -1.55005 1.00998 l -0.31995 -0.51999 l -1.38 
            0.84 l 0.60895 0.84 l 0.79004 0.98001 l 1.72101 0.41 l 2.14899 -0.61002 l 2.01099 -0.84 l 2.86902 -0.94998 l 
            2.89899 -0.36002 l 2.97101 0.45999 l 2.71997 0.82001 l 4.38104 1.31 l 3.021 3.33002 l 4.16998 1.28 l 1.62 
            1.03 l 0.66998 1.25 l 0.22003 1.38 l -0.19904 1.65997 l -0.77997 1.80002 l -0.52899 1.73999 l -0.65002 
            1.35001 l -0.18896 2.84 l -0.271 0.57999 l -0.88 0.68002 l -0.72003 0.35001 l -0.39099 0.04999 l -0.60901 
            0.51001 l -7.80096 10.34 l -0.75 0.98999 l 0.13098 0.48001 l 0.71997 0.57999 l 10.17004 -12.47 l 1.66998 
            -2.41 l 0.66998 -0.59 l 0.73004 -0.17999 l 0.66998 0.12 l 2.89001 1.479 l 1.341 1.73999 l 5.28894 8.79001 l 
            0.28003 0.75 l -0.021 0.97 l 0.39899 0.62 l 1.47101 0.75 l 0.98901 0.33002 l 4.22998 8.92099 z" transform="matrix(0.9183673 0.0 0.0 0.9183673 1.9661778 0.94475496)"
            stroke="#646464"/>
        <polygon fill="#FEFEE9" id="svg_23" points="632.697,744.9187 650.6881,810.1399 648.2871,808.3069 
            644.23804,806.2195 642.26904,805.6687 639.697,805.3694 635.36707,805.5178 632.20703,805.9475 
            629.10815,806.8987 624.20703,808.17847 622.1571,808.54956 620.0681,808.6487 617.4281,808.2776 
            611.45703,806.9983 608.1781,805.07837 605.0281,803.57837 601.6571,801.82837 597.51904,800.3694 
            591.61707,799.4885 587.10815,799.6975 583.11707,800.5178 580.5371,801.2893 576.25806,802.9983 
            572.12805,804.2195 567.60815,806.2097 548.7981,813.3694 544.50806,815.7097 537.478,820.4597 
            536.20703,821.4695 519.36707,795.9187 484.45706,765.67847 504.03714,745.9187 482.69705,724.9187 
            496.3671,717.57837 496.03714,696.57837 539.4181,687.3479 539.4181,687.3386 599.36707,674.57837 
            589.36707,707.2483 596.697,739.0886 642.36707,728.9187" transform="matrix(0.9183673 0.0 0.0 0.9183673 1.9661778 0.94475496)"/>
        <polygon fill="#FEFEE9" id="svg_24" points="599.0371,643.9187 604.0371,657.9187 599.36707,674.57837 
            539.4181,687.3386 523.24805,605.68774 518.00806,576.0393 593.697,566.9187 597.697,626.57837" transform="matrix(0.9183673 0.0 0.0 0.9183673 1.9661778 0.94475496)"/>
        <path fill="#FEFEE9" id="svg_25" d="m 597.0371 429.24838 l -10.66998 58.33002 l -3.33002 4.33997 l 1.0 14.33002 
            c 0.0 0.0 4.65997 10.33002 5.33002 12.0 s 2.32996 9.0 2.32996 9.0 l 2.0 39.66901 l -75.68896 9.12097 l 
            -6.96002 -39.43097 l -3.31897 -4.06 l -4.06104 -55.42001 l -13.53998 -18.85098 l 0.0 -0.01001 c 2.68896 
            -1.63 4.909 -3.01999 5.77899 -3.67001 c 2.95001 -2.21997 9.97101 -13.66998 11.45001 -15.88998 c 1.479 
            -2.20999 14.03998 -9.23001 14.03998 -9.23001 l 18.97003 -2.56 l 36.62 1.51001 l 20.04999 0.82199 z"
            transform="matrix(0.9183673 0.0 0.0 0.9183673 1.9661778 0.94475496)"/>
        <path fill="#FEFEE9" id="svg_26" d="m 540.36707 426.9188 l -18.97003 2.56 c 0.0 0.0 -12.56097 7.021 -14.03998 
            9.23001 c -1.479 2.22 -8.5 13.66998 -11.45001 15.88998 c -0.87 0.64999 -3.08997 2.04001 -5.77899 3.67001 l 
            0.0 0.00998 c -6.45001 3.91 -15.64899 9.25 -15.64899 9.25 s -18.84003 11.08002 -21.79102 11.82001 c -2.95996 
            0.73999 -25.85999 8.5 -25.85999 8.5 l -60.659 -18.23999 l 10.819 -43.20001 l 4.38 1.51102 l 24.0 -21.0 l 
            19.66998 -10.67001 l 40.31198 -23.97 l 42.35004 34.30002 c 0.0 0.0 14.33997 12.34 18.0 13.66998 c 3.66699 
            1.32867 14.66699 6.66901 14.66699 6.66901 z" transform="matrix(0.9183673 0.0 0.0 0.9183673 1.9661778 0.94475496)"/>
        <polygon fill="#FEFEE9" id="svg_27" points="523.24805,605.68774 539.4181,687.3386 539.4181,687.3479 
            496.03714,696.57837 496.3671,717.57837 482.69705,724.9187 470.3671,729.57837 442.36703,696.9187 
            436.697,703.2483 401.03708,670.9187 385.69705,634.2483 400.96805,628.5979 460.43808,617.1399" transform="matrix(0.9183673 0.0 0.0 0.9183673 1.9661778 0.94475496)"/>
        <path fill="#FEFEE9" id="svg_28" d="m 519.36707 795.9187 l 16.841 25.55103 l -2.479 1.97894 l -4.73999 4.07001 l 
            -6.19904 6.73004 l -4.07996 5.578 l -3.28003 4.81097 l -4.521 6.63098 l -3.56897 4.89099 l -4.70001 7.07001 
            l -5.94904 9.43903 l -8.64996 12.27899 l -2.13 3.35901 l -4.98901 7.25 l -4.51099 6.39099 l -0.46002 0.68903 
            l -6.02899 9.23999 l -8.30103 11.81097 l -4.53998 6.578 l -0.52002 2.771 l -1.69995 3.26001 l -2.86005 
            2.20099 l -4.65897 5.12903 l -10.841 15.82001 l -29.13 -26.52899 l -3.66998 3.65796 l -3.189 -2.229 l 
            3.85898 -4.42999 l -37.66998 -37.34198 l -4.66 -0.328 l -2.0 -2.0 l -0.67001 -3.672 l -14.0 -14.65802 c 0.0 
            0.0 -1.66998 -4.66998 -3.32999 -6.34198 c -1.67001 -1.65802 -6.67001 -2.65802 -6.67001 -2.65802 l -30.66998 
            -28.66998 c 0.0 0.0 3.34 -4.0 5.34 -3.33002 c 2.0 0.65802 5.0 1.0 5.0 1.0 l 22.76099 -23.79095 l 18.96002 
            -19.81104 l 17.60898 -18.39801 l 10.0 -10.66998 l 1.67001 -7.0 c 0.0 0.0 25.65997 1.66998 29.65997 1.66998 s 
            21.67001 -1.0 21.67001 -1.0 l 30.67001 29.33002 l 16.41998 -16.57001 l 34.90601 30.242 z" transform="matrix(0.9183673 0.0 0.0 0.9183673 1.9661778 0.94475496)"/>
        <path fill="#FEFEE9" stroke-width="2" id="svg_29" d="m 528.697 140.72882 l -0.23999 0.77 l -5.21002 12.31 c 0.0 
            0.0 -7.94897 -5.68001 -13.18799 -8.75 c -5.22998 -3.07001 -9.75 -0.54001 -10.65002 0.0 c -0.90997 0.53999 
            -16.62 12.45999 -16.62 12.45999 l 4.70001 3.25 c 0.0 0.0 -11.91998 8.13 -13.54999 9.39 c -1.62 1.27 -5.78003 
            3.98001 -15.53003 8.31 c -9.75 4.34001 -8.31 13.91 -2.70996 22.22 c 5.60101 8.3 22.58002 7.94 22.58002 7.94 
            l -0.18005 4.16 c 0.0 0.0 -7.40997 0.0 -11.92096 -0.17999 c -4.521 -0.18001 -14.45001 -2.35001 -14.45001 
            -2.35001 s -5.60101 7.58 -7.23001 9.39 c -1.62 1.81 -11.91998 9.39 -18.06 13.18001 c -6.13998 3.79999 
            -13.54001 12.64999 -13.54001 12.64999 l -16.40997 -10.20001 l -24.96002 17.30002 l -30.82999 36.66998 l 
            -19.0 -15.32999 l -3.45001 2.439 l -26.54999 -40.10999 l 35.34 -25.33002 l -7.67001 -3.67 l 4.33002 -2.0 l 
            -10.05002 -14.73 l 79.77002 -50.77 l -5.659 -8.24001 l 23.439 -38.13 c 0.0 0.0 -10.82001 -7.21 -15.45999 
            -8.75999 c -4.63 -1.54 -18.29001 -8.5 -21.12003 -11.33 c -2.82999 -2.84 -14.67999 -11.6 -14.67999 -11.6 l 
            21.85001 -12.71 l -0.729 1.96 l 1.229 2.9 l 2.061 -0.24001 l 2.91998 -0.4 l 10.03 -17.35 l -0.22098 -2.50999 
            l 0.89999 -0.98 l 1.22 0.13 l 3.34 5.11 l 1.66 5.33 l 2.00998 6.14 l 0.76102 4.77 l -2.51102 2.34 l 
            -12.92999 1.03 l -10.04999 9.91 l 4.06 8.07 l 1.85999 1.73 l 8.49002 4.19 l 5.23898 -8.3 l 6.61002 -5.32999 
            l -0.939 -7.59 l 4.72897 -3.71 l 1.15002 1.58 l -3.021 2.68 l 1.69998 3.37 l 2.01001 2.78001 l 0.64999 
            0.21999 l 1.01001 0.33 l 0.85001 -2.09 l 1.88098 -2.73 l 3.659 -2.0 l 3.92102 -1.62 l 3.75 0.51 l 6.98898 
            1.83 l 3.33002 0.98 l 2.84 2.01 l 5.89099 6.09 l 0.18903 0.34 l 2.02997 3.54 l 1.78998 3.58 l 0.13 7.03 l 
            1.91003 0.22 l 0.67999 -3.29 l 3.15997 2.05 l 2.26001 -0.09 l 3.37 -1.49 l 3.70001 -0.38 l 4.52002 1.79 l 
            4.47998 2.64 l 3.48999 3.24001 l 1.75 5.25 l -0.38098 4.47 l 5.33002 2.34 l 5.56097 3.58 l 3.47003 2.59999 l 
            2.89996 3.11 l 2.13 3.63 l 1.18903 3.49001 l 0.68896 4.81999 l -0.43896 4.68001 l 0.35901 0.01999 l 0.0 
            0.32001 l 0.0 0.32001 l -0.41003 -0.02 l -0.06897 1.55 l 3.37 2.5 l 2.64099 4.17999 l 2.21997 2.52 l 2.21002 
            -0.64 l 1.58002 0.89 l 2.16998 -0.17 l 3.40997 1.31999 l 4.43903 0.29001 l 2.86902 0.86 l 0.44 -0.02 l 0.31 
            -0.46001 l 0.32996 -0.17999 l 0.31201 -0.01001 l 0.47101 0.19101 z" transform="matrix(0.9183673 0.0 0.0 0.9183673 1.9661778 0.94475496)"
            stroke="#646464"/>
        <path fill="#FEFEE9" id="svg_30" d="m 518.00806 576.0393 l 5.23901 29.64801 l -62.81 11.44897 l -59.47003 11.461 
            l -40.06097 -102.12897 l -15.729 -40.10004 l 20.98999 -16.76099 l 60.659 18.23999 c 0.0 0.0 22.90002 
            -7.76001 25.85999 -8.5 c 2.95001 -0.73999 21.79102 -11.81998 21.79102 -11.81998 s 9.19897 -5.34 15.64899 
            -9.25 l 13.54004 18.85098 l 4.06097 55.41998 l 3.31903 4.06006 l 6.96198 39.43097 z" transform="matrix(0.9183673 0.0 0.0 0.9183673 1.9661778 0.94475496)"/>
        <path fill="#FEFEE9" id="svg_31" d="m 504.03714 745.9187 l -19.58002 19.76001 l -16.41998 16.57001 l -30.66998 
            -29.33002 c 0.0 0.0 -17.67001 1.0 -21.67001 1.0 s -29.66 -1.66998 -29.66 -1.66998 l -1.66998 7.0 l -10.0 
            10.66998 l -17.60901 18.40002 l -32.64099 -34.49005 l 18.85098 -31.39996 l -31.04001 -29.17999 l -10.28 
            -28.18903 l -32.31998 -88.60901 l 30.82999 -18.77899 l 12.14099 -7.39099 l 11.46002 -6.28003 l 37.14899 
            -17.52997 l 40.061 102.12799 l -15.271 5.65002 l 15.34 36.66998 l 35.66 32.33002 l 5.66998 -6.33002 l 28.0 
            32.65997 l 12.33002 -4.65997 l 21.33899 21.0 z" transform="matrix(0.9183673 0.0 0.0 0.9183673 1.9661778 0.94475496)"/>
        <path fill="#FEFEE9" d="m 458.228 310.67856 c 0.17999 0.72 -22.53 27.89999 -22.53 27.89999 s -22.0 -10.66 -24.66 
            -12.0 c -2.67001 -1.32999 -30.67001 -13.32999 -36.0 -15.0 c -5.34 -1.66 -19.0 -4.66 -19.0 -4.66 l -15.34 
            -17.66998 l 30.82999 -36.67001 l 24.96002 -17.29999 l 16.40997 10.19998 l 20.41 12.10001 l 21.31003 13.91 l 
            -16.80002 20.22 c 9.0E-5 2.7E-4 20.23007 18.25027 20.41 18.97 z" id="svg_32" stroke-width="2" transform="matrix(0.9183673 0.0 0.0 0.9183673 1.9661778 0.94475496)"
            stroke="#646464"/>
        <polygon fill="#FEFEE9" id="svg_33" points="436.49802,959.4475 421.728,981.00854 402.02805,1009.47876 
            400.53708,1011.7097 390.738,1026.3578 367.37802,1059.0497 354.24704,1076.3578 349.57706,1082.39 
            343.988,1078.3578 339.60806,1075.057 336.808,1069.268 329.91806,1062.14 320.85806,1054.0399 
            312.74704,1046.6976 298.54807,1033.6791 291.59805,1027.3285 286.01804,1022.2586 279.53702,1016.2678 
            269.33804,1006.75854 258.62802,996.62964 247.96805,986.62964 243.488,983.5276 280.03702,943.9187 
            341.36703,1002.2483 400.50803,934.3479 403.69705,936.57837 407.36703,932.9187" transform="matrix(0.9183673 0.0 0.0 0.9183673 1.9661778 0.94475496)"/>
        <path stroke-linecap="square" transform="matrix(0.9183673 0.0 0.0 0.9183673 1.9661778 0.94475496)" fill="#FEFEE9"
            id="svg_34" d="m 411.19705 93.37872 l -23.439 38.13001 l 5.66 8.24001 l -79.771 50.76999 l -22.54001 
            -32.99001 l -4.73999 -6.95 l 31.0 -20.0 l -35.39001 -59.79 l 2.01001 -0.99 l 15.931 -6.99001 l 6.04999 -2.78 
            l 9.77899 -4.97 l 4.30103 -3.27 l 7.47 -1.87 l 1.22897 -0.5 l 12.58002 -12.16 l 7.811 -6.7 l 1.42999 -2.1 l 
            0.28 -5.89 l 2.03 -3.88 l 3.45999 -5.33 l 2.76001 -3.36 l 0.04001 -2.91 l 2.76999 -3.11 l 3.17001 -2.08 l 
            4.53 -0.53 l 4.35999 1.32 l 7.76001 7.21 l 8.979 13.55 l 0.07999 9.09 l -1.09 3.68 l -2.38 0.32 l -2.48999 
            1.61 l -1.79001 -0.15 l -3.47 4.25 l 0.26001 2.38 l 1.60999 2.27 l 0.35001 2.08 l -21.85001 12.71 c 0.0 0.0 
            11.85001 8.75999 14.68002 11.6 c 2.82999 2.83 16.48999 9.79 21.12 11.33 c 4.64096 1.55004 15.45999 8.75999 
            15.45999 8.75999 z" stroke="#757573" stroke-width="2"/>
        <path fill="#FEFEE9" id="svg_35" d="m 400.50803 934.3479 l -59.14099 67.90002 l -61.33002 -58.33002 l -36.54999 
            39.60901 l -2.28 -1.57001 l -14.13 -3.75 l -2.59 -1.81104 l -4.28 -8.30096 l -3.289 -7.86902 l -4.36002 
            -6.64099 l -6.31998 -6.02002 l -6.45001 -3.64996 l -22.229 -19.81104 l -13.59 -12.479 l -1.85001 -1.711 l 
            -10.511 -10.11896 l -3.399 -3.39105 c 0.0 0.0 21.48901 -15.15997 25.83 -18.48999 c 4.32901 -3.33997 31.65901 
            -38.66998 33.65901 -42.0 c 2.0 -3.33997 9.34 -8.66998 12.34 -9.33997 c 3.0 -0.66003 9.66 -3.66003 9.66 
            -3.66003 l 34.66998 -28.33997 l 31.75 31.229 l 9.16 -25.42999 l 5.92001 2.22095 l 9.22998 -10.72095 l 
            17.37003 16.25 l -22.76102 23.79095 c 0.0 0.0 -3.0 -0.34198 -5.0 -1.0 c -2.0 -0.672 -5.34 3.328 -5.34 3.328 
            l 30.67001 28.672 c 0.0 0.0 5.0 1.0 6.66998 2.65802 c 1.66 1.66998 3.33002 6.34198 3.33002 6.34198 l 14.0 
            14.65802 l 0.66998 3.66998 l 2.0 2.0 l 4.66 0.33002 l 37.67001 37.34198 l -3.85901 4.43402 z" transform="matrix(0.9183673 0.0 0.0 0.9183673 1.9661778 0.94475496)"/>
        <path fill="#FEFEE9" id="svg_36" d="m 376.988 426.40854 l -10.819 43.20001 l -52.39099 -15.75 l -25.48999 
            20.31998 l -20.68903 -33.62 l -2.28998 -1.17999 l 14.38998 -48.79999 c 0.0 0.0 3.67001 -7.0 6.67001 -8.66 c 
            3.0 -1.67001 17.66998 -16.34 17.66998 -16.34 l 32.33002 30.34 l -5.67001 23.32999 l 29.34 1.33002 l 16.94901 
            5.82999 z" transform="matrix(0.9183673 0.0 0.0 0.9183673 1.9661778 0.94475496)"/>
        <polygon fill="#FEFEE9" id="svg_37" points="366.16806,469.60873 345.178,486.3685 360.907,526.4685 
            323.75803,543.9983 312.29807,550.2776 300.157,557.6687 257.69705,491.57846 276.36703,484.9188 
            288.28702,474.17856 313.77805,453.85873" transform="matrix(0.9183673 0.0 0.0 0.9183673 1.9661778 0.94475496)"/>
        <polygon fill="#FEFEE9" id="svg_38" points="324.11703,753.82837 356.75803,788.3186 337.79807,808.12964 
            320.428,791.87964 311.19705,802.5979 305.27805,800.37964 296.11703,825.8069 264.36703,794.57837 
            182.69803,715.2483 220.80801,693.8386 266.36703,668.2483 278.03702,679.9187 291.36703,669.9187 
            301.64804,665.0569 311.928,693.2483 342.96805,722.42847" transform="matrix(0.9183673 0.0 0.0 0.9183673 1.9661778 0.94475496)"/>
        <polygon fill="#FEFEE9" id="svg_39" points="327.03702,210.91876 291.69705,236.24834 285.36703,238.57841 
            283.03702,235.24834 277.69705,238.57841 263.03702,222.91876 252.36703,212.57843 241.28702,192.2088 
            242.36703,191.57843 291.10806,157.52863 313.64804,190.51886 323.69705,205.24835 319.36703,207.24835"
            transform="matrix(0.9183673 0.0 0.0 0.9183673 1.9661778 0.94475496)"/>
        <polygon fill="#FEFEE9" id="svg_40" points="291.69705,236.24834 318.24704,276.35873 265.36703,313.77866 
            215.69705,348.9188 178.36801,311.9188 145.03806,279.9188 119.038055,260.9188 115.518036,258.92856 
            117.36801,254.91878 200.36703,204.91876 204.36703,213.57843 241.28702,192.2088 252.36703,212.57843 
            263.03702,222.91876 277.69705,238.57841 283.03702,235.24834 285.36703,238.57841" transform="matrix(0.9183673 0.0 0.0 0.9183673 1.9661778 0.94475496)"/>
        <polygon fill="#FEFEE9" id="svg_41" points="281.97806,69.78841 317.36703,129.57845 286.36703,149.57843 
            291.10806,156.52863 242.36703,190.57843 241.28702,191.2088 204.36703,212.57843 200.36703,203.91876 
            117.36801,253.91878 115.518036,257.92856 110.64804,255.17854 111.358,253.5086 113.19803,249.83867 
            115.40805,245.27861 122.108,228.14874 128.53806,211.19855 133.04807,198.42853 138.108,186.34894 
            144.51804,174.78839 148.46805,160.44855 149.37802,154.39874 151.41806,148.99835 153.72806,143.90851 
            156.09805,139.3089 162.93802,135.68878 172.04807,131.42854 182.75803,124.39876 187.15701,120.0887 
            190.53702,118.0887 195.06802,116.53841 217.41806,104.868484 224.16806,101.78841 237.12802,95.0887 
            244.66806,91.04866 253.31802,86.39876 259.46805,82.69856 269.77805,76.268875 276.74704,72.34895" transform="matrix(0.9183673 0.0 0.0 0.9183673 1.9661778 0.94475496)"/>
        <path fill="#FEFEE9" id="svg_42" d="m 296.36703 344.32846 l 7.66998 21.25 c 0.0 0.0 -14.66998 14.66998 -17.66998 
            16.34 c -3.0 1.66 -6.67001 8.66101 -6.67001 8.66101 l -44.66 -16.0 l -19.34 -25.66 l 49.67001 -35.14001 l 
            17.0 7.14001 l 14.0 23.409 z" transform="matrix(0.9183673 0.0 0.0 0.9183673 1.9661778 0.94475496)"/>
        <polygon fill="#FEFEE9" id="svg_43" points="269.32706,576.4475 301.64804,665.0569 291.36703,669.9187 
            278.03702,679.9187 266.36703,668.2483 169.69803,572.2483 196.71805,543.52856 246.17801,590.54956" transform="matrix(0.9183673 0.0 0.0 0.9183673 1.9661778 0.94475496)"/>
        <polygon fill="#FEFEE9" id="svg_44" points="257.69705,491.57846 300.157,557.6687 269.32706,576.4475 
            246.17801,590.54956 196.71805,543.52856 186.32706,533.6487 216.36703,502.24838" transform="matrix(0.9183673 0.0 0.0 0.9183673 1.9661778 0.94475496)"/>
        <path fill="#FEFEE9" id="svg_45" d="m 267.59805 440.55893 l 20.689 33.62 l -11.91998 10.73999 l -18.67001 6.659 
            l -41.32999 10.67102 l -30.04001 31.39899 c 0.0 0.0 -5.17 -5.90997 -7.02 -7.75 c -1.85001 -1.84998 -19.95 
            -28.82001 -19.95 -28.82001 l -30.319 -41.49997 l 44.33 -33.65903 l 69.66899 6.0 l 22.271 11.46002 l 2.29001 
            1.17999 z" transform="matrix(0.9183673 0.0 0.0 0.9183673 1.9661778 0.94475496)"/>
        <polygon fill="#FEFEE9" id="svg_46" points="279.69705,390.57846 265.308,439.37875 243.03702,427.9188 
            173.36801,421.9188 145.36801,408.24838 142.63803,404.53842 215.69705,348.9188 235.03702,374.57846"
            transform="matrix(0.9183673 0.0 0.0 0.9183673 1.9661778 0.94475496)"/>
        <polygon fill="#FEFEE9" id="svg_47" points="266.36703,668.2483 220.80801,693.8386 194.36703,668.57837 
            194.36703,663.9187 190.36703,664.9187 160.69803,635.9187 155.36801,637.9187 124.15805,609.8069 
            142.69705,588.2483 169.69803,572.2483" transform="matrix(0.9183673 0.0 0.0 0.9183673 1.9661778 0.94475496)"/>
        <path fill="#FEFEE9" id="svg_48" d="m 264.36703 794.57837 l -34.67001 28.34003 c 0.0 0.0 -6.66 3.0 -9.66 3.65997 
            c -3.0 0.66998 -10.34 6.0 -12.34 9.34003 c -2.0 3.32996 -29.32899 38.65997 -33.659 42.0 c -4.34099 3.32996 
            -25.82999 18.48999 -25.82999 18.48999 l -1.931 -1.92004 l -1.31001 -1.33997 l -18.98999 -17.15002 l -11.41 
            -10.51996 l -19.5 -17.98004 l -21.53999 -19.64996 l -11.229 -10.42004 l -6.271 -5.86896 l -11.59 -10.63104 l 
            -12.23901 -11.35895 l -2.01099 -1.89105 l 118.85099 -66.75995 l 24.66 -13.34003 l 9.0 7.66998 l 81.66901 
            79.33002 z" transform="matrix(0.9183673 0.0 0.0 0.9183673 1.9661778 0.94475496)"/>
        <path fill="#FEFEE9" id="svg_49" d="m 220.80801 693.8386 l -38.11 21.41003 l -9.0 -7.67004 l -24.659 13.34003 l 
            -38.67 -34.66998 l -2.33 -17.33002 l 22.659 -4.66998 c 0.0 0.0 0.14099 -2.52002 -4.0 -4.0 c -3.38 -1.20905 
            -10.81 -1.27905 -13.659 -2.33002 c -1.55101 -0.57001 -3.431 -1.52002 -5.52101 -2.66998 l 10.52101 -3.33002 l 
            -39.53 -36.42999 l 23.189 -25.91003 l 22.461 20.229 l 31.21001 28.11102 l 5.32899 -2.0 l 29.67 29.0 l 4.0 
            -1.0 l 0.0 4.65997 l 26.44 25.26001 z" transform="matrix(0.9183673 0.0 0.0 0.9183673 1.9661778 0.94475496)"/>
        <polygon fill="#FEFEE9" id="svg_50" stroke-width="2" points="115.518036,258.92856 119.038055,260.9188 
            145.03806,279.9188 178.36801,311.9188 215.69705,348.9188 142.63803,404.53842 84.41806,325.32846 
            89.308014,313.48862 91.73801,305.47885 94.93802,296.7186 100.42807,282.67856 104.008026,273.55893 
            106.308014,267.44858 109.17807,259.6185 110.64804,256.17856" transform="matrix(0.9183673 0.0 0.0 0.9183673 1.9661778 0.94475496)"/>
        <path fill="#FEFEE9" id="svg_51" d="m 186.32706 533.6487 l 10.39099 9.88 l -27.01999 28.71997 l -27.0 16.0 l 
            -18.54001 21.56104 l -22.45999 -20.229 l -23.19 25.90802 l -26.19 -24.12903 l 23.55099 -27.40997 l 20.319 
            -21.06 l 63.17 -45.81 c 0.0 0.0 18.101 26.96997 19.95 28.81897 c 1.85001 1.83984 7.01901 7.75 7.01901 7.75 
            z" transform="matrix(0.9183673 0.0 0.0 0.9183673 1.9661778 0.94475496)"/>
        <polygon fill="#FEFEE9" id="svg_52" points="173.36801,421.9188 129.03806,455.57846 159.35806,497.07846 
            96.18802,542.8889 75.86801,563.9475 14.138033,508.37872 24.308016,481.10873 30.618013,464.98862 
            32.068027,461.4188 36.678074,449.53842 37.658054,446.45883 40.138035,440.70883 42.04807,435.1888 
            44.368015,430.90854 44.99802,429.09897 48.468052,418.98862 51.04807,412.75864 53.968052,404.95883 
            57.968052,394.19858 63.418064,380.94858 68.42807,366.47885 70.73801,360.69858 72.788055,355.65854 
            74.86801,350.02866 77.028046,344.65854 79.808014,337.23862 82.798065,329.24838 84.41806,325.32846 
            142.63803,404.53842 145.36801,408.24838" transform="matrix(0.9183673 0.0 0.0 0.9183673 1.9661778 0.94475496)"/>
        <path fill="#FEFEE9" id="svg_53" d="m 149.03806 720.9187 l -118.85099 66.76001 l -4.439 -3.91998 l -5.88 
            -4.84003 l -3.75 -4.41998 l -1.07 -2.47998 l -0.43 -0.98804 l -0.801 -2.56097 l -0.42 -6.42004 l -0.75 
            -15.22998 l -1.14 -21.58002 l -0.76 -17.86896 l -0.561 -10.92999 l -0.439 -7.62103 l -0.28 -9.31799 l -1.16 
            -11.83002 l -0.1 -2.461 l -0.55 -2.29901 l -2.74 -8.87097 l 0.47 -1.64099 c 0.0 0.0 28.97999 1.521 40.31 
            -2.479 c 11.341 -4.0 31.671 -9.0 40.341 -6.0 c 6.55 2.27002 15.0 7.77002 21.479 11.33002 c 2.09 1.14795 3.97 
            2.09998 5.521 2.66998 c 2.85001 1.04901 10.27901 1.11902 13.65901 2.33002 c 4.14099 1.479 4.0 4.0 4.0 4.0 l 
            -22.65901 4.66998 l 2.33 17.33002 l 38.67 34.66797 z" transform="matrix(0.9183673 0.0 0.0 0.9183673 1.9661778 0.94475496)"/>
        <path fill="#FEFEE9" id="svg_54" d="m 78.508026 615.4885 l 39.53 36.42999 l -10.521 3.33002 c -6.479 -3.56104 
            -14.93001 -9.06104 -21.479 -11.33002 c -8.67 -3.0 -29.0 2.0 -40.34 6.0 c -11.33 4.0 -40.311 2.47998 -40.311 
            2.47998 l 2.22 -7.73999 l -0.939 -16.961 l -0.72 -17.44897 l 40.09 -24.66998 l 6.279 5.77899 l 26.191 
            24.13098 z" transform="matrix(0.9183673 0.0 0.0 0.9183673 1.9661778 0.94475496)"/>
        <polygon fill="#FEFEE9" id="svg_55" points="75.86801,563.9475 52.318027,591.35767 46.03806,585.57837 
            5.948031,610.2483 5.528048,600.2195 4.488009,581.0979 3.7180505,559.35767 3.2680383,552.47876 
            2.448031,543.3186 2.4380212,539.1487 4.328036,534.27856 8.288057,522.67847 12.908052,511.66873 
            14.138033,508.37872" transform="matrix(0.9183673 0.0 0.0 0.9183673 1.9661778 0.94475496)"/>
        <path fill="#FEFEE9" id="svg_56" d="m 434.03708 346.9188 l 1.66 -8.34 c 0.0 0.0 -22.0 -10.66 -24.66 -12.0 c 
            -2.66998 -1.33002 -30.66998 -13.33002 -36.0 -15.0 c -5.34 -1.66 -19.0 -4.66 -19.0 -4.66 l -0.00299 -0.00299 
            l 0.0 0.0 l -0.66699 46.58298 l -7.0 2.0 l -24.75 28.0 c 0.0 0.0 -0.04901 0.117 -0.13901 0.32401 l 12.88901 
            12.09601 l -5.67001 23.32999 l 29.34 1.33002 l 16.95001 5.82898 l 4.38 1.51102 l 24.0 -21.0 l 19.66998 
            -10.67001 l 40.31201 -23.97 l -31.31201 -25.35999 z" transform="matrix(0.9183673 0.0 0.0 0.9183673 1.9661778 0.94475496)"/>
        <path fill="#FEFEE9" id="svg_57" d="m 323.61703 383.49838 l 24.75 -28.0 l 7.0 -2.0 l 0.66699 -46.58301 l 0.0 0.0 
            l -15.33701 -17.66699 l -19.0 -15.33002 l -3.44998 2.43903 l -52.88 37.41998 l 17.0 7.14001 l 14.0 23.41 l 
            7.66998 21.25 l 19.44101 18.24399 c 0.09103 -0.20581 0.13901 -0.323 0.13901 -0.323 z" transform="matrix(0.9183673 0.0 0.0 0.9183673 1.9661778 0.94475496)"/>
        <polyline fill="none" stroke-width="2" id="svg_58" points="597.7012,626.5823 616.03406,620.91626 
            671.36707,613.5823 699.7012,607.5823" transform="matrix(0.9183673 0.0 0.0 0.9183673 1.9661778 0.94475496)"
            stroke="#646464"/>
        <polyline fill="none" stroke-width="2" id="svg_59" points="896.91016,651.5847 890.49207,660.0764 
            883.2461,668.90063 876.09106,673.02954 866.8711,683.16626 865.1061,685.4475 864.4531,687.1277 
            864.28906,689.1233 864.44604,692.6316 865.19214,696.1858 866.2551,699.3303 870.45703,711.3928 
            870.603,714.17065 870.2742,715.4983 869.07104,716.66626 867.2201,717.7717 862.531,720.0178 
            859.21606,721.9397 856.614,724.0886 853.69604,727.03735 845.3601,735.97485 844.2201,736.8303 
            842.83203,737.5066 840.7241,738.1277 837.45703,738.40063 835.18115,738.8655 833.302,739.60376 
            811.1061,753.5149 809.177,755.3655 807.8992,757.9905 807.63806,762.29565 807.46216,766.72876 
            807.114,768.47485 806.2742,769.8469 800.6101,773.9319 794.50903,777.9719 790.55615,782.4944 
            784.32104,789.60767 782.96606,790.2136 781.3561,790.6116 778.6991,790.7483 769.8281,789.91235 
            759.3131,792.66235 756.49207,793.09985 754.6301,793.3655 746.7781,793.73267 737.2511,793.6467 
            734.3131,793.9514 731.3131,794.6428 727.94214,795.8855 724.4701,799.03735 720.16907,804.40454 
            717.8992,807.7014 715.34106,810.3733 714.26306,810.9866 712.41907,811.6155 708.84106,812.48267 
            706.66406,812.7366 704.2241,813.6316 701.6421,815.2483 697.11707,820.47485 691.6301,822.53735 
            682.802,822.1428 677.052,820.29956 671.739,820.4319 669.1731,820.4866 667.25903,819.9905 665.6731,818.9475 
            664.9811,817.5764 664.63806,816.3303 664.6261,814.5925 665.1301,812.9475 666.1421,811.9636 
            671.7981,809.27563 673.478,808.0105 674.31006,806.10767 674.44604,805.0969 674.13403,804.0027 
            672.5951,802.2405 670.5171,800.29565 667.91406,798.97485 665.8241,797.92847 663.55615,797.3928 
            661.8451,797.4436 660.69214,797.79956 659.3281,798.8616 658.7201,800.65063 659.0011,803.16626 
            659.6492,807.04956 659.94604,809.0925 659.645,811.0725 658.96606,812.6233 657.6101,813.5178 
            655.38403,813.4553 653.63403,812.5969 651.43115,810.7136 648.28516,808.3069 644.239,806.2219 
            642.2671,805.67065 639.6991,805.3655 635.3711,805.5178 632.2031,805.9475 629.1101,806.8967 
            624.20703,808.17456 622.16016,808.55347 620.07104,808.65063 617.427,808.27563 611.45703,806.9983 
            608.177,805.0803 605.0281,803.5764 601.656,801.8303 597.5171,800.3694 591.614,799.4866 587.1101,799.6936 
            583.1211,800.5178 580.53516,801.28345 576.26306,803.0027 572.1261,804.2219 567.6101,806.2097 
            548.7981,813.3733 544.50903,815.7097 537.4811,820.4636 533.728,823.4436 528.99207,827.5178 
            522.78906,834.2483 518.70703,839.8303 515.427,844.6355 510.9031,851.2717 507.3372,856.15454 
            502.6381,863.22876 496.68814,872.67065 488.0352,884.9436 485.90604,888.30884 480.9191,895.5569 
            476.4031,901.9475 475.94913,902.6399 469.92313,911.8777 461.61398,923.6858 457.07407,930.2717 
            456.55612,933.04126 454.86008,936.29565 451.99606,938.4983 447.33713,943.6316 421.72702,981.0066 
            402.03104,1009.47876 400.53903,1011.7097 390.73502,1026.3578 367.38004,1059.0458 354.24203,1076.3539 
            349.574,1082.39 343.98904,1078.3539 339.60605,1075.057 336.80606,1069.2719 329.91904,1062.143 
            320.86002,1054.0419 312.74606,1046.7015 298.54807,1033.6747 291.59805,1027.3265 286.01303,1022.25665 
            279.53506,1016.2717 269.337,1006.7605 258.626,996.6277 247.97305,986.6316 241.20303,981.9636 
            227.07803,978.2097 224.48904,976.3967 220.212,968.09985 216.91904,960.23267 212.56302,953.5886 
            206.23904,947.5725 199.78903,943.91626 177.56302,924.10767 163.97305,911.6233 162.11404,909.91626 
            151.61002,899.79956 146.27805,894.4866 144.97305,893.15063 125.98105,875.9944 114.56705,865.47876 
            95.06705,847.4983 73.528046,827.84985 62.29807,817.4319 56.02805,811.5608 44.438023,800.9319 
            32.19602,789.5686 30.18802,787.67456 25.743013,783.7566 19.872042,778.92065 16.122042,774.5027 
            15.048067,772.0178 14.622042,771.02954 13.817049,768.4719 13.399019,762.05347 12.649019,746.8225 
            11.509005,725.2366 10.75107,707.3655 10.192049,696.4397 9.75107,688.8186 9.473055,679.5027 
            8.313021,667.67065 8.204073,665.2053 7.6610436,662.91235 4.915011,654.04126 7.606051,644.65454 
            6.6690392,627.6975 5.528048,600.2175 4.4850183,581.09985 3.7200646,559.3616 3.2630334,552.48267 
            2.450045,543.3225 2.4380212,539.15063 4.3330407,534.27563 8.286043,522.68286 12.907076,511.6707 
            24.306002,481.11166 30.618013,464.99057 32.07102,461.41684 36.680027,449.53745 37.65305,446.4554 
            40.138035,440.7137 42.04807,435.1937 44.364048,430.91245 44.997044,429.10092 48.473057,418.98666 
            51.052036,412.7606 53.966038,404.9598 57.970066,394.1976 63.415012,380.9515 68.43002,366.47592 
            70.735016,360.7015 72.79001,355.66245 74.87204,350.02573 77.03201,344.66245 79.81302,337.23666 
            82.798065,329.24448 89.30905,313.49057 91.739044,305.47592 94.93802,296.72153 100.43002,282.67465 
            104.009,273.56088 106.30905,267.4476 109.17703,259.61557 111.35605,254.50667 113.20004,250.83476 
            115.403046,246.27568 122.10605,229.1507 128.53604,212.20148 133.04807,199.42853 138.11002,187.3465 
            144.51303,175.79181 148.47006,161.45148 149.376,155.39386 151.41501,149.99445 153.73105,144.90851 
            156.09805,140.30353 162.93405,136.68683 172.04404,132.42854 182.75504,125.396805 187.15305,121.092606 
            190.53506,119.08479 195.07101,117.53352 217.41904,105.86946 224.16904,102.791824 237.126,96.0887 
            244.66403,92.04573 253.31705,87.40071 259.47006,83.697586 269.78104,77.26497 276.751,73.35091 
            283.99203,69.79964 299.91904,62.803547 305.96603,60.02572 315.74203,55.06087 320.04404,51.783527 
            327.51602,49.91683 328.74606,49.420734 341.324,37.26058 349.14102,30.55794 350.56705,28.455399 
            350.84506,22.564774 352.876,18.689774 356.337,13.361649 359.09805,9.994461 359.14102,7.0847936" transform="matrix(0.9183673 0.0 0.0 0.9183673 1.9661778 0.94475496)"
            stroke="#646464"/>
        <path fill="none" d="m 597.03406 429.24838 l -10.66699 58.33301 l -3.33301 4.33301 l 1.0 14.33301 c 0.0 0.0 
            4.66699 10.33295 5.33301 12.0 s 2.33398 9.0 2.33398 9.0 l 2.0 39.66699 l 4.0 59.66797 l 1.33301 17.33203 l 
            5.0 14.0 l -4.66699 16.66797 l -103.33301 22.0 l 0.33301 21.0 l -13.66699 7.33203 l 21.33398 21.0 l -36.0 
            36.33398 l -30.66699 -29.33398 c 0.0 0.0 -17.66699 1.0 -21.66699 1.0 s -29.66702 -1.66602 -29.66702 -1.66602 
            l -1.66699 7.0 l -10.0 10.66602 l -36.56799 38.21295 l -17.371 -16.24597 l -9.23499 10.71301 l -5.91101 
            -2.21704 l -9.168 25.42603 l -31.746 -31.22101 l -34.66702 28.33203 c 0.0 0.0 -6.66699 3.0 -9.66699 3.66797 
            c -3.0 0.66602 -10.33301 6.0 -12.33301 9.33203 c -2.0 3.33398 -29.33199 38.66797 -33.66599 42.0 c -4.334 
            3.33398 -25.82701 18.49396 -25.82701 18.49396" id="svg_60" stroke-width="2" transform="matrix(0.9183673 0.0 0.0 0.9183673 1.9661778 0.94475496)"
            stroke="#646464"/>
        <polyline fill="none" stroke-width="2" id="svg_61" points="484.4551,765.6765 519.36707,795.91626 
            536.21216,821.4719" transform="matrix(0.9183673 0.0 0.0 0.9183673 1.9661778 0.94475496)" stroke="#646464"/>
        <path fill="none" stroke-width="2" id="svg_62" d="m 82.41702 325.3265 l 60.951 82.922 l 28.0 13.66699 l 69.666 
            6.0 l 24.565 12.64301 l 20.68799 33.61801 l 25.491 -20.31802 l 113.04401 33.987 c 0.0 0.0 22.90399 -7.758 
            25.86002 -8.49701 s 21.79596 -11.82098 21.79596 -11.82098 s 18.47205 -10.71301 21.427 -12.92999 s 9.97601 
            -13.668 11.45203 -15.88501 c 1.47803 -2.21698 14.03802 -9.23599 14.03802 -9.23599 l 18.97198 -2.55899 l 
            56.66699 2.33298 l 36.33301 0.33301 l 12.66699 8.66699 c 0.0 0.0 15.66699 2.33301 18.0 2.33301 s 57.33301 
            -3.33301 57.33301 -3.33301 l -2.66602 -38.0 l -3.0 -8.33298 l 20.99902 -25.0 c 0.0 0.0 -7.58301 -14.91702 
            -9.83301 -17.16702 s -8.5 -10.0 -13.0 -14.0 s -15.75 -10.0 -15.75 -10.0 l 8.75 -14.25 l 29.0 -1.5 l 17.0 
            12.0 l 19.75 -0.75 l 5.37701 3.44101 l 3.98596 -7.70801" transform="matrix(0.9183673 0.0 0.0 0.9183673 1.9661778 0.94475496)"
            stroke="#646464"/>
        <path fill="none" d="m 691.74207 439.02475 l 2.177 19.63599 l 2.21698 39.52704 l 1.10602 55.04297 l 2.45898 
            54.35199 l 4.0 42.66803 c 0.0 0.0 28.33301 -8.66602 32.33301 -11.0 c 2.44 -1.42401 8.479 -5.70099 12.96698 
            -9.047 l -0.30096 12.04498 l 6.66699 -1.66602 l 7.66699 -11.66595 l -0.25098 -9.89606 c 7.599 -6.01794 
            17.58398 -13.771 17.58398 -13.771 l 19.33398 -0.33398 l 1.33301 17.66803 l 13.66699 -14.66803 l 0.66602 
            -12.0 l 23.0 -1.0 l 6.099 -6.10199 l 29.901 -38.56403 l 2.33301 10.0 c 0.0 0.0 10.66797 1.33203 12.33398 
            1.33203 s 7.36401 -1.21698 7.36401 -1.21698" id="svg_63" stroke-width="2" transform="matrix(0.9183673 0.0 0.0 0.9183673 1.9661778 0.94475496)"
            stroke="#646464"/>
        <polyline fill="none" stroke-width="2" id="svg_64" points="490.13016,458.27182 503.66312,477.1307 
            507.72806,532.5447 511.05313,536.60864 523.24316,605.6897 539.4231,687.3469" transform="matrix(0.9183673 0.0 0.0 0.9183673 1.9661778 0.94475496)"
            stroke="#646464"/>
        <polyline fill="none" stroke-width="2" id="svg_65" points="523.24316,605.6897 460.44113,617.1428 
            400.96402,628.5969 345.18106,486.36655 366.16702,469.60776" transform="matrix(0.9183673 0.0 0.0 0.9183673 1.9661778 0.94475496)"
            stroke="#646464"/>
        <path fill="none" d="m 360.90903 526.47046 l -37.155 17.526 l -11.452 6.27899 l -66.12701 40.27002 l -59.84799 
            -56.89301 c 0.0 0.0 -5.172 -5.91003 -7.01999 -7.758 c -1.847 -1.84698 -19.94901 -28.81403 -19.94901 
            -28.81403 l -63.172 45.80902 l -20.317 21.05701 l -61.734 -55.565" id="svg_66" stroke-width="2" transform="matrix(0.9183673 0.0 0.0 0.9183673 1.9661778 0.94475496)"
            stroke="#646464"/>
        <polyline fill="none" stroke-width="2" id="svg_67" points="269.329,576.4436 311.93204,693.2444 
            342.96402,722.4309 324.12204,753.8303 356.75504,788.3186" transform="matrix(0.9183673 0.0 0.0 0.9183673 1.9661778 0.94475496)"
            stroke="#646464"/>
        <path fill="none" d="m 5.387057 652.3967 c 0.0 0.0 28.981 1.52002 40.31499 -2.47998 s 31.667 -9.0 40.333 -6.0 s 
            20.66701 11.66595 27.0 14.0 c 2.851 1.04895 10.278 1.12299 13.66701 2.33197 c 4.138 1.47699 4.0 4.0 4.0 4.0 
            l -22.66701 4.66803 l 2.33301 17.33197 l 38.66699 34.66803 l 24.66701 -13.33405 l 9.0 7.66602 l 83.66599 
            -47.0 l 11.66702 11.66803 l 13.33298 -10.0 l 10.28201 -4.85901" id="svg_68" stroke-width="2" transform="matrix(0.9183673 0.0 0.0 0.9183673 1.9661778 0.94475496)"
            stroke="#646464"/>
        <path fill="none" d="m 142.64102 404.53745 l 73.061 -55.62399 l 106.0 -75.0 l 19.0 15.33301 l 15.33301 17.66699 
            c 0.0 0.0 13.66699 3.0 19.0 4.66699 s 33.33298 13.66699 36.0 15.0 s 24.66699 12.0 24.66699 12.0 l -1.66699 
            8.33301 l 73.66696 59.66699 c 0.0 0.0 14.33203 12.33301 17.99902 13.66699 s 14.66699 6.66702 14.66699 
            6.66702" id="svg_69" stroke-width="2" transform="matrix(0.9183673 0.0 0.0 0.9183673 1.9661778 0.94475496)"
            stroke="#646464"/>
        <polyline fill="none" id="svg_70" points="281.97806,70.78645 317.36703,130.58138 286.36703,150.58136 
            323.70102,205.24835 319.36703,207.24835 327.03403,210.91534 291.70102,236.24834 318.25003,276.35776"
            transform="matrix(0.9183673 0.0 0.0 0.9183673 1.9661778 0.94475496)" stroke="#646464"/>
        <path fill="none" id="svg_71" d="m 435.70114 338.5814 c 0.0 0.0 22.70697 -27.18301 22.526 -27.90601 c -0.18103 
            -0.72299 -20.409 -18.96399 -20.409 -18.96399 l 16.79602 -20.229 l -21.31201 -13.90701 l -20.40903 -12.10098 
            c 0.0 0.0 7.40503 -8.85001 13.54602 -12.64301 s 16.43698 -11.37801 18.06198 -13.185 c 1.625 -1.80701 7.224 
            -9.392 7.224 -9.392 s 9.935 2.16699 14.44904 2.34799 c 4.51398 0.181 11.91998 0.181 11.91998 0.181 l 0.18097 
            -4.15399 c 0.0 0.0 -16.97699 0.36099 -22.57599 -7.94701 c -5.599 -8.308 -7.04401 -17.88 2.70898 -22.215 s 
            13.90601 -7.043 15.53204 -8.308 s 13.54596 -9.392 13.54596 -9.392 l -4.69397 -3.25101 c 0.0 0.0 15.71198 
            -11.92 16.61401 -12.46201 c 0.90295 -0.54199 5.41797 -3.06999 10.65601 0.0 c 5.23798 3.07001 13.18799 
            8.75401 13.18799 8.75401" transform="matrix(0.9183673 0.0 0.0 0.9183673 1.9661778 0.94475496)" stroke="#646464"/>
        <path fill="none" id="svg_72" d="m 576.9861 428.42368 l 6.04901 -19.508 l 26.33301 -40.0 l 16.66699 -27.66699 l 
            21.0 -1.33301 l 7.0 7.33301 l 19.33301 -36.66702 c 0.0 0.0 -9.33301 -8.66699 -14.33301 -11.33298 s -10.33301 
            -6.66602 -11.0 -8.33301 s -4.33398 -7.0 -4.33398 -7.0 l 14.66699 -16.66699 l 2.33301 -8.33301 l 25.0 
            17.33301 l 3.67096 -1.83701" transform="matrix(0.9183673 0.0 0.0 0.9183673 1.9661778 0.94475496)" stroke="#646464"/>
        <path fill="none" id="svg_73" d="m 313.64505 190.52277 l 79.77701 -50.77499 l -5.66699 -8.24301 l 23.44098 
            -38.12499 c 0.0 0.0 -10.81799 -7.213 -15.45599 -8.759 c -4.63699 -1.546 -18.29099 -8.5 -21.12399 -11.334 s 
            -14.68402 -11.592 -14.68402 -11.592 l 21.85303 -12.715" transform="matrix(0.9183673 0.0 0.0 0.9183673 1.9661778 0.94475496)"
            stroke="#646464"/>
        <polyline fill="none" stroke-width="1.7008" id="svg_74" points="340.70102,289.24838 371.52603,252.57843 
            396.48703,235.28056 412.89505,245.47588" transform="matrix(0.9183673 0.0 0.0 0.9183673 1.9661778 0.94475496)"
            stroke="#646464"/>
        <polyline fill="none" stroke-width="1.7008" id="svg_75" points="291.113,157.5296 242.36703,191.58136 
            204.36703,213.58136 200.36703,204.91534 117.36801,254.91536 115.36801,259.24838" transform="matrix(0.9183673 0.0 0.0 0.9183673 1.9661778 0.94475496)"
            stroke="#646464"/>
        <polyline fill="none" stroke-width="1.7008" id="svg_76" points="110.64505,256.17563 119.035,260.91537 
            145.03506,279.91537 178.36801,311.91537 215.70102,348.91537 235.03403,374.5814 279.70102,390.5814"
            transform="matrix(0.9183673 0.0 0.0 0.9183673 1.9661778 0.94475496)" stroke="#646464"/>
        <polyline fill="none" stroke-width="1.7008" id="svg_77" points="241.29105,192.20538 252.36703,212.58136 
            263.03403,222.91534 277.70102,238.58134 283.03403,235.24834 285.36703,238.58134 291.70102,236.24834"
            transform="matrix(0.9183673 0.0 0.0 0.9183673 1.9661778 0.94475496)" stroke="#646464"/>
        <path fill="none" d="m 265.303 439.37485 l 14.397 -48.793 c 0.0 0.0 3.66699 -7.0 6.66699 -8.66699 s 17.66702 
            -16.33301 17.66702 -16.33301" id="svg_78" stroke-width="1.7008" transform="matrix(0.9183673 0.0 0.0 0.9183673 1.9661778 0.94475496)"
            stroke="#646464"/>
        <polyline fill="none" stroke-width="1.7008" id="svg_79" points="265.36606,313.77475 282.36703,320.91537 
            296.36703,344.32553 304.03403,365.5814 336.36703,395.91537 330.70102,419.24838 360.03403,420.5814 
            381.36703,427.91537 405.36703,406.91537 425.03403,396.24838 465.34604,372.27573" transform="matrix(0.9183673 0.0 0.0 0.9183673 1.9661778 0.94475496)"
            stroke="#646464"/>
        <line transform="matrix(0.9183673 0.0 0.0 0.9183673 1.9661778 0.94475496)" fill="none" x1="376.98904" x2="366.16702"
            y1="426.4105" y2="469.60776" id="svg_80" stroke="#646464" stroke-width="1.7008"/>
        <polyline fill="none" stroke-width="1.7008" id="svg_81" points="186.32602,533.6526 216.36703,502.24838 
            257.70102,491.5814 276.36703,484.9144 288.28806,474.17563" transform="matrix(0.9183673 0.0 0.0 0.9183673 1.9661778 0.94475496)"
            stroke="#646464"/>
        <line transform="matrix(0.9183673 0.0 0.0 0.9183673 1.9661778 0.94475496)" fill="none" x1="300.16006" x2="257.70102"
            y1="557.67065" y2="491.5814" id="svg_82" stroke="#646464" stroke-width="1.7008"/>
        <polyline fill="none" stroke-width="1.7008" id="svg_83" points="173.36801,421.9144 129.035,455.5814 
            159.35904,497.07944" transform="matrix(0.9183673 0.0 0.0 0.9183673 1.9661778 0.94475496)" stroke="#646464"/>
        <polyline fill="none" stroke-width="1.7008" id="svg_84" points="5.94504,610.2527 46.035007,585.5823 
            118.035,651.91626 107.51901,655.25073" transform="matrix(0.9183673 0.0 0.0 0.9183673 1.9661778 0.94475496)"
            stroke="#646464"/>
        <line transform="matrix(0.9183673 0.0 0.0 0.9183673 1.9661778 0.94475496)" fill="none" x1="52.312046" x2="75.86905"
            y1="591.3655" y2="563.94556" id="svg_85" stroke="#646464" stroke-width="1.7008"/>
        <polyline fill="none" stroke-width="1.7008" id="svg_86" points="78.50107,615.4944 101.70206,589.5823 
            155.36801,637.91626 160.70206,635.91626 190.36703,664.91626 194.36703,663.91626 194.36703,668.5823 
            220.80704,693.8445" transform="matrix(0.9183673 0.0 0.0 0.9183673 1.9661778 0.94475496)" stroke="#646464"/>
        <polyline fill="none" stroke-width="1.7008" id="svg_87" points="124.163055,609.8108 142.70206,588.2483 
            169.70206,572.2483 196.71805,543.5305" transform="matrix(0.9183673 0.0 0.0 0.9183673 1.9661778 0.94475496)"
            stroke="#646464"/>
        <line transform="matrix(0.9183673 0.0 0.0 0.9183673 1.9661778 0.94475496)" fill="none" x1="169.70206" x2="266.36703"
            y1="572.2483" y2="668.2483" id="svg_88" stroke="#646464" stroke-width="1.7008"/>
        <polyline fill="none" stroke-width="1.7008" id="svg_89" points="482.7001,724.91626 470.3671,729.5823 
            442.36703,696.91626 436.70114,703.2483 401.03403,670.91626 385.70102,634.2483 400.96402,628.5969" transform="matrix(0.9183673 0.0 0.0 0.9183673 1.9661778 0.94475496)"
            stroke="#646464"/>
        <line transform="matrix(0.9183673 0.0 0.0 0.9183673 1.9661778 0.94475496)" fill="none" x1="182.70206" x2="264.36703"
            y1="715.2483" y2="794.5823" id="svg_90" stroke="#646464" stroke-width="1.7008"/>
        <line transform="matrix(0.9183673 0.0 0.0 0.9183673 1.9661778 0.94475496)" fill="none" x1="30.18802" x2="149.03506"
            y1="787.67456" y2="720.91626" id="svg_91" stroke="#646464" stroke-width="1.7008"/>
        <polyline fill="none" stroke-width="1.7008" id="svg_92" points="436.50107,959.4436 407.36703,932.9143 
            403.70108,936.5823 400.36703,934.2483" transform="matrix(0.9183673 0.0 0.0 0.9183673 1.9661778 0.94475496)"
            stroke="#646464"/>
        <path fill="none" d="m 243.48105 983.53345 l 36.55402 -39.61902 l 61.33298 58.33398 l 63.0 -72.33398 l -37.668 
            -37.33215 l -4.66699 -0.33398 l -2.0 -2.0 l -0.66702 -3.66602 l -14.0 -14.66797 c 0.0 0.0 -1.66599 -4.66602 
            -3.33298 -6.33203 c -1.66702 -1.66797 -6.66702 -2.66797 -6.66702 -2.66797 l -30.66699 -28.664 c 0.0 0.0 
            3.33301 -4.00201 5.33301 -3.33405 c 2.0 0.66602 5.0 1.0 5.0 1.0 l 22.76599 -23.789" id="svg_93"
            stroke-width="1.7008" transform="matrix(0.9183673 0.0 0.0 0.9183673 1.9661778 0.94475496)" stroke="#646464"/>
        <polyline fill="none" stroke-width="1.7008" id="svg_94" points="518.0111,576.03735 593.7012,566.91626 
            638.7012,556.91626 768.36707,548.5813" transform="matrix(0.9183673 0.0 0.0 0.9183673 1.9661778 0.94475496)"
            stroke="#646464"/>
        <polyline fill="none" stroke-width="1.7008" id="svg_95" points="599.36707,674.5823 589.36707,707.2483 
            596.7012,739.0867 642.36707,728.91626 653.36707,727.5823 654.03406,721.5823 699.03406,699.5823 
            698.36707,691.5823 706.03406,687.2483 703.7012,650.25073" transform="matrix(0.9183673 0.0 0.0 0.9183673 1.9661778 0.94475496)"
            stroke="#646464"/>
        <polyline fill="none" stroke-width="1.7008" id="svg_96" points="650.68506,810.14087 632.7012,744.91626 
            642.36707,728.91626" transform="matrix(0.9183673 0.0 0.0 0.9183673 1.9661778 0.94475496)" stroke="#646464"/>
        <polyline fill="none" stroke-width="1.7008" id="svg_97" points="816.65405,750.03735 811.7012,721.2483 
            805.36707,664.2483 801.03406,622.5823" transform="matrix(0.9183673 0.0 0.0 0.9183673 1.9661778 0.94475496)"
            stroke="#646464"/>
        <polyline fill="none" stroke-width="1.7008" id="svg_98" points="777.48413,607.49243 771.03406,594.91626 
            769.7001,581.2483 768.36707,541.9143 820.36707,537.2483" transform="matrix(0.9183673 0.0 0.0 0.9183673 1.9661778 0.94475496)"
            stroke="#646464"/>
        <polyline fill="none" stroke-width="1.7008" id="svg_99" points="838.36707,594.91626 824.7001,581.91626 
            820.365,537.2483 813.7001,449.24838 808.03406,431.5814" transform="matrix(0.9183673 0.0 0.0 0.9183673 1.9661778 0.94475496)"
            stroke="#646464"/>
        <polyline fill="none" stroke-width="1.7008" id="svg_100" points="696.1361,498.18784 799.03406,489.24838 
            805.36707,482.24838 809.03406,481.9144 812.03406,484.5814 816.34717,484.17465" transform="matrix(0.9183673 0.0 0.0 0.9183673 1.9661778 0.94475496)"
            stroke="#646464"/>
        <polyline fill="none" stroke-width="1.7008" id="svg_101" points="721.36707,437.24838 808.03406,431.5814 
            837.86707,429.74838 837.11707,426.99838 853.61707,418.74838 861.468,414.91782" transform="matrix(0.9183673 0.0 0.0 0.9183673 1.9661778 0.94475496)"
            stroke="#646464"/>
        <polyline fill="none" stroke-width="1.7008" id="svg_102" points="323.61703,383.49838 348.36703,355.49838 
            355.36703,353.49838 356.03403,306.91537" transform="matrix(0.9183673 0.0 0.0 0.9183673 1.9661778 0.94475496)"
            stroke="#646464"/>
    </g>
</svg>